<svg id="svg" version="1.1" xmlns="http://www.w3.org/2000/svg" xmlns:xlink="http://www.w3.org/1999/xlink" width="400" height="400" viewBox="0, 0, 400,400"><g id="svgg"><path id="path0" d="M121.298 121.302 C 113.104 129.498,106.400 136.383,106.400 136.603 C 106.400 136.822,120.440 151.041,137.600 168.200 C 154.760 185.359,168.800 199.669,168.800 200.000 C 168.800 200.331,154.760 214.641,137.600 231.800 C 120.440 248.959,106.400 263.178,106.400 263.397 C 106.400 263.921,136.075 293.600,136.599 293.600 C 136.821 293.600,151.041 279.560,168.200 262.400 C 185.359 245.240,199.669 231.200,200.000 231.200 C 200.331 231.200,214.641 245.240,231.800 262.400 C 248.959 279.560,263.178 293.600,263.397 293.600 C 263.921 293.600,293.600 263.925,293.600 263.401 C 293.600 263.179,279.560 248.959,262.400 231.800 C 245.240 214.641,231.200 200.331,231.200 200.000 C 231.200 199.669,245.240 185.359,262.400 168.200 C 279.560 151.041,293.600 136.821,293.600 136.599 C 293.600 136.075,263.921 106.400,263.397 106.400 C 263.178 106.400,248.959 120.440,231.800 137.600 C 214.641 154.760,200.331 168.800,200.000 168.800 C 199.669 168.800,185.359 154.760,168.200 137.600 C 151.041 120.440,136.821 106.400,136.599 106.400 C 136.377 106.400,129.492 113.106,121.298 121.302 " stroke="none" fill="#fcfbfb" fill-rule="evenodd"></path><path id="path1" d="M180.300 0.272 C 178.155 0.358,176.400 0.602,176.400 0.814 C 176.400 1.030,174.987 1.200,173.200 1.200 C 171.333 1.200,170.000 1.367,170.000 1.600 C 170.000 1.822,168.933 2.000,167.600 2.000 C 166.267 2.000,165.200 2.178,165.200 2.400 C 165.200 2.620,164.210 2.800,163.000 2.800 C 161.790 2.800,160.800 2.980,160.800 3.200 C 160.800 3.420,160.001 3.600,159.024 3.600 C 158.047 3.600,157.136 3.780,157.000 4.000 C 156.864 4.220,156.043 4.400,155.176 4.400 C 154.309 4.400,153.600 4.580,153.600 4.800 C 153.600 5.020,152.880 5.200,152.000 5.200 C 151.120 5.200,150.400 5.380,150.400 5.600 C 150.400 5.820,149.680 6.000,148.800 6.000 C 147.920 6.000,147.200 6.180,147.200 6.400 C 147.200 6.620,146.671 6.800,146.024 6.800 C 145.377 6.800,144.736 6.980,144.600 7.200 C 144.464 7.420,143.823 7.600,143.176 7.600 C 142.529 7.600,142.000 7.759,142.000 7.954 C 142.000 8.149,141.013 8.431,139.806 8.582 C 138.600 8.733,137.509 9.023,137.383 9.228 C 137.256 9.433,136.724 9.600,136.200 9.600 C 135.676 9.600,135.136 9.780,135.000 10.000 C 134.864 10.220,134.223 10.400,133.576 10.400 C 132.929 10.400,132.400 10.580,132.400 10.800 C 132.400 11.020,132.038 11.200,131.595 11.200 C 131.152 11.200,130.477 11.359,130.095 11.553 C 129.713 11.748,128.860 12.129,128.200 12.400 C 127.540 12.671,126.687 13.052,126.305 13.247 C 125.923 13.441,125.248 13.600,124.805 13.600 C 124.362 13.600,124.000 13.780,124.000 14.000 C 124.000 14.220,123.640 14.400,123.200 14.400 C 122.760 14.400,122.400 14.547,122.400 14.728 C 122.400 14.908,121.500 15.300,120.400 15.600 C 119.300 15.900,118.400 16.292,118.400 16.472 C 118.400 16.653,118.040 16.800,117.600 16.800 C 117.160 16.800,116.800 16.980,116.800 17.200 C 116.800 17.420,116.440 17.600,116.000 17.600 C 115.560 17.600,115.200 17.780,115.200 18.000 C 115.200 18.220,114.840 18.400,114.400 18.400 C 113.960 18.400,113.600 18.580,113.600 18.800 C 113.600 19.020,113.240 19.200,112.800 19.200 C 112.360 19.200,112.000 19.380,112.000 19.600 C 112.000 19.820,111.640 20.000,111.200 20.000 C 110.760 20.000,110.400 20.180,110.400 20.400 C 110.400 20.620,110.040 20.800,109.600 20.800 C 109.160 20.800,108.800 20.980,108.800 21.200 C 108.800 21.420,108.530 21.600,108.200 21.600 C 107.870 21.600,107.600 21.780,107.600 22.000 C 107.600 22.220,107.240 22.400,106.800 22.400 C 106.360 22.400,106.000 22.580,106.000 22.800 C 106.000 23.020,105.640 23.200,105.200 23.200 C 104.760 23.200,104.400 23.380,104.400 23.600 C 104.400 23.820,104.040 24.000,103.600 24.000 C 103.160 24.000,102.800 24.180,102.800 24.400 C 102.800 24.620,102.526 24.800,102.192 24.800 C 101.858 24.800,100.913 25.212,100.092 25.716 C 99.271 26.219,97.745 27.074,96.700 27.615 C 95.655 28.156,94.800 28.734,94.800 28.899 C 94.800 29.065,94.558 29.200,94.262 29.200 C 93.966 29.200,93.398 29.560,93.000 30.000 C 92.602 30.440,92.034 30.800,91.738 30.800 C 91.442 30.800,91.200 30.980,91.200 31.200 C 91.200 31.420,90.964 31.600,90.675 31.600 C 90.387 31.600,89.764 31.960,89.292 32.400 C 88.820 32.840,88.244 33.200,88.013 33.200 C 87.782 33.200,87.028 33.740,86.337 34.400 C 85.646 35.060,84.878 35.600,84.629 35.600 C 84.380 35.600,83.917 35.960,83.600 36.400 C 83.283 36.840,82.791 37.200,82.508 37.200 C 82.225 37.200,81.428 37.740,80.737 38.400 C 80.046 39.060,79.304 39.600,79.088 39.600 C 78.871 39.600,78.403 39.917,78.047 40.304 C 77.691 40.692,76.680 41.538,75.800 42.184 C 74.920 42.830,73.909 43.683,73.553 44.079 C 73.197 44.476,72.718 44.800,72.488 44.800 C 72.258 44.800,70.973 45.880,69.632 47.200 C 68.292 48.520,67.026 49.600,66.820 49.600 C 66.517 49.600,63.817 52.221,58.200 57.966 C 57.980 58.191,56.177 59.956,54.193 61.888 C 52.209 63.820,50.141 66.028,49.598 66.795 C 49.055 67.562,47.753 69.065,46.705 70.135 C 45.657 71.205,44.800 72.267,44.800 72.494 C 44.800 72.721,44.476 73.197,44.079 73.553 C 43.683 73.909,42.828 74.916,42.179 75.791 C 41.531 76.666,40.505 77.908,39.900 78.550 C 39.295 79.193,38.800 79.922,38.800 80.171 C 38.800 80.420,38.440 80.883,38.000 81.200 C 37.560 81.517,37.200 82.009,37.200 82.292 C 37.200 82.575,36.660 83.372,36.000 84.063 C 35.340 84.754,34.800 85.522,34.800 85.771 C 34.800 86.020,34.440 86.483,34.000 86.800 C 33.560 87.117,33.200 87.657,33.200 88.000 C 33.200 88.343,32.840 88.883,32.400 89.200 C 31.960 89.517,31.600 90.014,31.600 90.305 C 31.600 90.596,31.240 91.220,30.800 91.692 C 30.360 92.164,29.776 93.056,29.503 93.675 C 29.229 94.294,28.897 94.800,28.765 94.800 C 28.634 94.800,28.095 95.655,27.568 96.700 C 27.042 97.745,26.504 98.690,26.374 98.800 C 25.960 99.149,24.800 101.701,24.800 102.261 C 24.800 102.558,24.620 102.800,24.400 102.800 C 24.180 102.800,24.000 103.145,24.000 103.567 C 24.000 103.988,23.865 104.393,23.700 104.467 C 23.324 104.634,22.025 106.764,21.729 107.700 C 21.607 108.085,21.348 108.400,21.153 108.400 C 20.959 108.400,20.800 108.745,20.800 109.167 C 20.800 109.588,20.665 109.993,20.500 110.067 C 20.335 110.140,19.775 111.100,19.256 112.200 C 18.737 113.300,18.152 114.513,17.956 114.895 C 17.760 115.277,17.600 115.862,17.600 116.195 C 17.600 116.528,17.420 116.800,17.200 116.800 C 16.980 116.800,16.800 117.160,16.800 117.600 C 16.800 118.040,16.620 118.400,16.400 118.400 C 16.180 118.400,16.000 118.760,16.000 119.200 C 16.000 119.640,15.853 120.000,15.672 120.000 C 15.492 120.000,15.100 120.900,14.800 122.000 C 14.500 123.100,14.108 124.000,13.928 124.000 C 13.747 124.000,13.600 124.279,13.600 124.619 C 13.600 124.960,13.240 125.984,12.800 126.894 C 12.360 127.805,12.000 128.861,12.000 129.242 C 12.000 129.622,11.860 129.993,11.688 130.067 C 11.245 130.256,8.400 139.040,8.400 140.220 C 8.400 140.759,8.220 141.200,8.000 141.200 C 7.780 141.200,7.600 141.830,7.600 142.600 C 7.600 143.370,7.420 144.000,7.200 144.000 C 6.980 144.000,6.800 144.630,6.800 145.400 C 6.800 146.170,6.620 146.800,6.400 146.800 C 6.180 146.800,6.000 147.430,6.000 148.200 C 6.000 148.970,5.820 149.600,5.600 149.600 C 5.380 149.600,5.200 150.309,5.200 151.176 C 5.200 152.043,5.020 152.864,4.800 153.000 C 4.580 153.136,4.400 154.047,4.400 155.024 C 4.400 156.001,4.220 156.800,4.000 156.800 C 3.780 156.800,3.600 157.520,3.600 158.400 C 3.600 159.280,3.420 160.000,3.200 160.000 C 2.980 160.000,2.800 160.990,2.800 162.200 C 2.800 163.410,2.620 164.400,2.400 164.400 C 2.180 164.400,2.000 165.379,2.000 166.576 C 2.000 167.773,1.820 168.864,1.600 169.000 C 1.380 169.136,1.200 170.482,1.200 171.990 C 1.200 173.829,1.035 174.788,0.700 174.900 C -0.032 175.144,-0.032 224.856,0.700 225.100 C 1.035 225.212,1.200 226.171,1.200 228.010 C 1.200 229.518,1.380 230.864,1.600 231.000 C 1.820 231.136,2.000 232.227,2.000 233.424 C 2.000 234.621,2.180 235.600,2.400 235.600 C 2.620 235.600,2.800 236.590,2.800 237.800 C 2.800 239.010,2.980 240.000,3.200 240.000 C 3.420 240.000,3.600 240.720,3.600 241.600 C 3.600 242.480,3.780 243.200,4.000 243.200 C 4.220 243.200,4.400 243.999,4.400 244.976 C 4.400 245.953,4.580 246.864,4.800 247.000 C 5.020 247.136,5.200 247.957,5.200 248.824 C 5.200 249.691,5.380 250.400,5.600 250.400 C 5.820 250.400,6.000 251.030,6.000 251.800 C 6.000 252.570,6.180 253.200,6.400 253.200 C 6.620 253.200,6.800 253.830,6.800 254.600 C 6.800 255.370,6.980 256.000,7.200 256.000 C 7.420 256.000,7.600 256.630,7.600 257.400 C 7.600 258.170,7.780 258.800,8.000 258.800 C 8.220 258.800,8.400 259.241,8.400 259.780 C 8.400 260.960,11.245 269.744,11.688 269.933 C 11.860 270.007,12.000 270.378,12.000 270.758 C 12.000 271.139,12.360 272.195,12.800 273.106 C 13.240 274.016,13.600 275.040,13.600 275.381 C 13.600 275.721,13.747 276.000,13.928 276.000 C 14.108 276.000,14.500 276.900,14.800 278.000 C 15.100 279.100,15.492 280.000,15.672 280.000 C 15.853 280.000,16.000 280.360,16.000 280.800 C 16.000 281.240,16.180 281.600,16.400 281.600 C 16.620 281.600,16.800 281.960,16.800 282.400 C 16.800 282.840,16.980 283.200,17.200 283.200 C 17.420 283.200,17.600 283.472,17.600 283.805 C 17.600 284.138,17.760 284.723,17.956 285.105 C 18.152 285.487,18.737 286.700,19.256 287.800 C 19.775 288.900,20.335 289.860,20.500 289.933 C 20.665 290.007,20.800 290.397,20.800 290.800 C 20.800 291.203,20.935 291.593,21.100 291.667 C 21.476 291.834,22.775 293.964,23.071 294.900 C 23.193 295.285,23.452 295.600,23.647 295.600 C 23.841 295.600,24.000 295.960,24.000 296.400 C 24.000 296.840,24.180 297.200,24.400 297.200 C 24.620 297.200,24.800 297.442,24.800 297.739 C 24.800 298.299,25.960 300.851,26.374 301.200 C 26.504 301.310,27.042 302.255,27.568 303.300 C 28.095 304.345,28.634 305.200,28.765 305.200 C 28.897 305.200,29.229 305.706,29.503 306.325 C 29.776 306.944,30.360 307.836,30.800 308.308 C 31.240 308.780,31.600 309.404,31.600 309.695 C 31.600 309.986,31.960 310.483,32.400 310.800 C 32.840 311.117,33.200 311.657,33.200 312.000 C 33.200 312.343,33.560 312.883,34.000 313.200 C 34.440 313.517,34.800 313.980,34.800 314.229 C 34.800 314.478,35.340 315.246,36.000 315.937 C 36.660 316.628,37.200 317.425,37.200 317.708 C 37.200 317.991,37.560 318.483,38.000 318.800 C 38.440 319.117,38.800 319.580,38.800 319.829 C 38.800 320.078,39.295 320.807,39.900 321.450 C 40.505 322.092,41.531 323.334,42.179 324.209 C 42.828 325.084,43.683 326.091,44.079 326.447 C 44.476 326.803,44.800 327.279,44.800 327.506 C 44.800 327.733,45.657 328.795,46.705 329.865 C 47.753 330.935,49.055 332.438,49.598 333.205 C 50.141 333.972,52.209 336.180,54.193 338.112 C 56.177 340.044,57.980 341.809,58.200 342.034 C 63.817 347.779,66.517 350.400,66.820 350.400 C 67.026 350.400,68.292 351.480,69.632 352.800 C 70.973 354.120,72.258 355.200,72.488 355.200 C 72.718 355.200,73.197 355.524,73.553 355.921 C 73.909 356.317,74.920 357.170,75.800 357.816 C 76.680 358.462,77.691 359.308,78.047 359.696 C 78.403 360.083,78.871 360.400,79.088 360.400 C 79.304 360.400,80.046 360.940,80.737 361.600 C 81.428 362.260,82.225 362.800,82.508 362.800 C 82.791 362.800,83.283 363.160,83.600 363.600 C 83.917 364.040,84.380 364.400,84.629 364.400 C 84.878 364.400,85.646 364.940,86.337 365.600 C 87.028 366.260,87.782 366.800,88.013 366.800 C 88.244 366.800,88.820 367.160,89.292 367.600 C 89.764 368.040,90.387 368.400,90.675 368.400 C 90.964 368.400,91.200 368.580,91.200 368.800 C 91.200 369.020,91.442 369.200,91.738 369.200 C 92.034 369.200,92.602 369.560,93.000 370.000 C 93.398 370.440,93.966 370.800,94.262 370.800 C 94.558 370.800,94.800 370.935,94.800 371.101 C 94.800 371.266,95.655 371.843,96.700 372.384 C 97.745 372.924,99.227 373.778,99.993 374.283 C 100.759 374.787,101.704 375.200,102.093 375.200 C 102.482 375.200,102.800 375.380,102.800 375.600 C 102.800 375.820,103.160 376.000,103.600 376.000 C 104.040 376.000,104.400 376.180,104.400 376.400 C 104.400 376.620,104.760 376.800,105.200 376.800 C 105.640 376.800,106.000 376.980,106.000 377.200 C 106.000 377.420,106.360 377.600,106.800 377.600 C 107.240 377.600,107.600 377.780,107.600 378.000 C 107.600 378.220,107.870 378.400,108.200 378.400 C 108.530 378.400,108.800 378.580,108.800 378.800 C 108.800 379.020,109.160 379.200,109.600 379.200 C 110.040 379.200,110.400 379.380,110.400 379.600 C 110.400 379.820,110.760 380.000,111.200 380.000 C 111.640 380.000,112.000 380.180,112.000 380.400 C 112.000 380.620,112.360 380.800,112.800 380.800 C 113.240 380.800,113.600 380.980,113.600 381.200 C 113.600 381.420,113.960 381.600,114.400 381.600 C 114.840 381.600,115.200 381.780,115.200 382.000 C 115.200 382.220,115.560 382.400,116.000 382.400 C 116.440 382.400,116.800 382.580,116.800 382.800 C 116.800 383.020,117.160 383.200,117.600 383.200 C 118.040 383.200,118.400 383.347,118.400 383.528 C 118.400 383.708,119.300 384.100,120.400 384.400 C 121.500 384.700,122.400 385.092,122.400 385.272 C 122.400 385.453,122.760 385.600,123.200 385.600 C 123.640 385.600,124.000 385.780,124.000 386.000 C 124.000 386.220,124.362 386.400,124.805 386.400 C 125.248 386.400,125.923 386.559,126.305 386.753 C 126.687 386.948,127.540 387.329,128.200 387.600 C 128.860 387.871,129.713 388.252,130.095 388.447 C 130.477 388.641,131.152 388.800,131.595 388.800 C 132.038 388.800,132.400 388.980,132.400 389.200 C 132.400 389.420,132.929 389.600,133.576 389.600 C 134.223 389.600,134.864 389.780,135.000 390.000 C 135.136 390.220,135.676 390.400,136.200 390.400 C 136.724 390.400,137.256 390.567,137.383 390.772 C 137.509 390.977,138.600 391.267,139.806 391.418 C 141.013 391.569,142.000 391.851,142.000 392.046 C 142.000 392.241,142.529 392.400,143.176 392.400 C 143.823 392.400,144.464 392.580,144.600 392.800 C 144.736 393.020,145.377 393.200,146.024 393.200 C 146.671 393.200,147.200 393.380,147.200 393.600 C 147.200 393.820,147.920 394.000,148.800 394.000 C 149.680 394.000,150.400 394.180,150.400 394.400 C 150.400 394.620,151.120 394.800,152.000 394.800 C 152.880 394.800,153.600 394.980,153.600 395.200 C 153.600 395.420,154.309 395.600,155.176 395.600 C 156.043 395.600,156.864 395.780,157.000 396.000 C 157.136 396.220,158.047 396.400,159.024 396.400 C 160.001 396.400,160.800 396.580,160.800 396.800 C 160.800 397.020,161.790 397.200,163.000 397.200 C 164.210 397.200,165.200 397.380,165.200 397.600 C 165.200 397.822,166.267 398.000,167.600 398.000 C 168.933 398.000,170.000 398.178,170.000 398.400 C 170.000 398.633,171.322 398.800,173.167 398.800 C 175.344 398.800,176.385 398.956,176.500 399.300 C 176.631 399.692,181.672 399.800,199.913 399.800 C 217.977 399.800,223.271 399.689,223.660 399.300 C 223.969 398.991,225.277 398.800,227.080 398.800 C 228.760 398.800,230.000 398.630,230.000 398.400 C 230.000 398.178,231.067 398.000,232.400 398.000 C 233.733 398.000,234.800 397.822,234.800 397.600 C 234.800 397.380,235.790 397.200,237.000 397.200 C 238.210 397.200,239.200 397.020,239.200 396.800 C 239.200 396.580,239.999 396.400,240.976 396.400 C 241.953 396.400,242.864 396.220,243.000 396.000 C 243.136 395.780,243.957 395.600,244.824 395.600 C 245.691 395.600,246.400 395.420,246.400 395.200 C 246.400 394.980,247.120 394.800,248.000 394.800 C 248.880 394.800,249.600 394.620,249.600 394.400 C 249.600 394.180,250.320 394.000,251.200 394.000 C 252.080 394.000,252.800 393.820,252.800 393.600 C 252.800 393.380,253.329 393.200,253.976 393.200 C 254.623 393.200,255.264 393.020,255.400 392.800 C 255.536 392.580,256.166 392.400,256.800 392.400 C 257.434 392.400,258.056 392.233,258.183 392.028 C 258.309 391.823,259.400 391.533,260.606 391.382 C 261.813 391.231,262.800 390.949,262.800 390.754 C 262.800 390.559,263.239 390.400,263.776 390.400 C 264.313 390.400,264.864 390.220,265.000 390.000 C 265.136 389.780,265.777 389.600,266.424 389.600 C 267.071 389.600,267.600 389.420,267.600 389.200 C 267.600 388.980,267.962 388.800,268.405 388.800 C 268.848 388.800,269.523 388.641,269.905 388.447 C 270.287 388.252,271.140 387.871,271.800 387.600 C 272.460 387.329,273.313 386.948,273.695 386.753 C 274.077 386.559,274.752 386.400,275.195 386.400 C 275.638 386.400,276.000 386.220,276.000 386.000 C 276.000 385.780,276.360 385.600,276.800 385.600 C 277.240 385.600,277.600 385.453,277.600 385.272 C 277.600 385.092,278.500 384.700,279.600 384.400 C 280.700 384.100,281.600 383.708,281.600 383.528 C 281.600 383.347,281.960 383.200,282.400 383.200 C 282.840 383.200,283.200 383.020,283.200 382.800 C 283.200 382.580,283.560 382.400,284.000 382.400 C 284.440 382.400,284.800 382.220,284.800 382.000 C 284.800 381.780,285.160 381.600,285.600 381.600 C 286.040 381.600,286.400 381.420,286.400 381.200 C 286.400 380.980,286.760 380.800,287.200 380.800 C 287.640 380.800,288.000 380.620,288.000 380.400 C 288.000 380.180,288.360 380.000,288.800 380.000 C 289.240 380.000,289.600 379.820,289.600 379.600 C 289.600 379.380,289.960 379.200,290.400 379.200 C 290.840 379.200,291.200 379.020,291.200 378.800 C 291.200 378.580,291.470 378.400,291.800 378.400 C 292.130 378.400,292.400 378.220,292.400 378.000 C 292.400 377.780,292.760 377.600,293.200 377.600 C 293.640 377.600,294.000 377.420,294.000 377.200 C 294.000 376.980,294.360 376.800,294.800 376.800 C 295.240 376.800,295.600 376.620,295.600 376.400 C 295.600 376.180,295.960 376.000,296.400 376.000 C 296.840 376.000,297.200 375.820,297.200 375.600 C 297.200 375.380,297.520 375.200,297.911 375.200 C 298.302 375.200,298.995 374.939,299.451 374.620 C 299.906 374.300,301.341 373.461,302.640 372.754 C 303.938 372.047,305.090 371.363,305.200 371.234 C 305.310 371.104,305.895 370.744,306.500 370.432 C 307.105 370.120,307.600 369.715,307.600 369.532 C 307.600 369.350,307.870 369.200,308.200 369.200 C 308.530 369.200,308.800 369.020,308.800 368.800 C 308.800 368.580,309.036 368.400,309.325 368.400 C 309.613 368.400,310.236 368.040,310.708 367.600 C 311.180 367.160,311.756 366.800,311.987 366.800 C 312.218 366.800,312.972 366.260,313.663 365.600 C 314.354 364.940,315.122 364.400,315.371 364.400 C 315.620 364.400,316.083 364.040,316.400 363.600 C 316.717 363.160,317.209 362.800,317.492 362.800 C 317.775 362.800,318.572 362.260,319.263 361.600 C 319.954 360.940,320.696 360.400,320.912 360.400 C 321.129 360.400,321.597 360.083,321.953 359.696 C 322.309 359.308,323.320 358.462,324.200 357.816 C 325.080 357.170,326.091 356.317,326.447 355.921 C 326.803 355.524,327.282 355.200,327.512 355.200 C 327.742 355.200,329.027 354.120,330.368 352.800 C 331.708 351.480,332.974 350.400,333.180 350.400 C 333.483 350.400,336.183 347.779,341.800 342.034 C 342.020 341.809,343.823 340.044,345.807 338.112 C 347.791 336.180,349.859 333.972,350.402 333.205 C 350.945 332.438,352.247 330.935,353.295 329.865 C 354.343 328.795,355.200 327.757,355.200 327.560 C 355.200 327.362,355.920 326.459,356.800 325.552 C 357.680 324.645,358.400 323.768,358.400 323.602 C 358.400 323.436,359.030 322.613,359.800 321.772 C 360.570 320.931,361.200 320.049,361.200 319.810 C 361.200 319.572,361.560 319.117,362.000 318.800 C 362.440 318.483,362.800 317.991,362.800 317.708 C 362.800 317.425,363.340 316.628,364.000 315.937 C 364.660 315.246,365.200 314.478,365.200 314.229 C 365.200 313.980,365.560 313.517,366.000 313.200 C 366.440 312.883,366.800 312.343,366.800 312.000 C 366.800 311.657,367.160 311.117,367.600 310.800 C 368.040 310.483,368.400 309.986,368.400 309.695 C 368.400 309.404,368.760 308.780,369.200 308.308 C 369.640 307.836,370.224 306.944,370.497 306.325 C 370.771 305.706,371.103 305.200,371.235 305.200 C 371.366 305.200,371.905 304.345,372.432 303.300 C 372.958 302.255,373.502 301.310,373.639 301.200 C 374.099 300.832,375.200 298.447,375.200 297.820 C 375.200 297.479,375.380 297.200,375.600 297.200 C 375.820 297.200,376.000 296.855,376.000 296.433 C 376.000 296.012,376.135 295.607,376.300 295.533 C 376.676 295.366,377.975 293.236,378.271 292.300 C 378.393 291.915,378.652 291.600,378.847 291.600 C 379.041 291.600,379.200 291.255,379.200 290.833 C 379.200 290.412,379.335 290.007,379.500 289.933 C 379.665 289.860,380.225 288.900,380.744 287.800 C 381.263 286.700,381.848 285.487,382.044 285.105 C 382.240 284.723,382.400 284.138,382.400 283.805 C 382.400 283.472,382.580 283.200,382.800 283.200 C 383.020 283.200,383.200 282.840,383.200 282.400 C 383.200 281.960,383.380 281.600,383.600 281.600 C 383.820 281.600,384.000 281.240,384.000 280.800 C 384.000 280.360,384.147 280.000,384.328 280.000 C 384.508 280.000,384.900 279.100,385.200 278.000 C 385.500 276.900,385.892 276.000,386.072 276.000 C 386.253 276.000,386.400 275.728,386.400 275.395 C 386.400 275.062,386.580 274.432,386.800 273.995 C 387.020 273.558,387.380 272.842,387.600 272.405 C 387.820 271.968,388.000 271.263,388.000 270.839 C 388.000 270.414,388.140 270.007,388.312 269.933 C 388.755 269.744,391.600 260.960,391.600 259.780 C 391.600 259.241,391.780 258.800,392.000 258.800 C 392.220 258.800,392.400 258.170,392.400 257.400 C 392.400 256.630,392.580 256.000,392.800 256.000 C 393.020 256.000,393.200 255.370,393.200 254.600 C 393.200 253.830,393.380 253.200,393.600 253.200 C 393.820 253.200,394.000 252.570,394.000 251.800 C 394.000 251.030,394.180 250.400,394.400 250.400 C 394.620 250.400,394.800 249.691,394.800 248.824 C 394.800 247.957,394.980 247.136,395.200 247.000 C 395.420 246.864,395.600 245.953,395.600 244.976 C 395.600 243.999,395.780 243.200,396.000 243.200 C 396.220 243.200,396.400 242.480,396.400 241.600 C 396.400 240.720,396.580 240.000,396.800 240.000 C 397.020 240.000,397.200 239.010,397.200 237.800 C 397.200 236.590,397.380 235.600,397.600 235.600 C 397.820 235.600,398.000 234.621,398.000 233.424 C 398.000 232.227,398.180 231.136,398.400 231.000 C 398.620 230.864,398.800 229.518,398.800 228.010 C 398.800 226.171,398.965 225.212,399.300 225.100 C 399.693 224.969,399.800 219.591,399.800 200.000 C 399.800 180.409,399.693 175.031,399.300 174.900 C 398.965 174.788,398.800 173.829,398.800 171.990 C 398.800 170.482,398.620 169.136,398.400 169.000 C 398.180 168.864,398.000 167.773,398.000 166.576 C 398.000 165.379,397.820 164.400,397.600 164.400 C 397.380 164.400,397.200 163.410,397.200 162.200 C 397.200 160.990,397.020 160.000,396.800 160.000 C 396.580 160.000,396.400 159.280,396.400 158.400 C 396.400 157.520,396.220 156.800,396.000 156.800 C 395.780 156.800,395.600 156.001,395.600 155.024 C 395.600 154.047,395.420 153.136,395.200 153.000 C 394.980 152.864,394.800 152.043,394.800 151.176 C 394.800 150.309,394.620 149.600,394.400 149.600 C 394.180 149.600,394.000 148.970,394.000 148.200 C 394.000 147.430,393.820 146.800,393.600 146.800 C 393.380 146.800,393.200 146.170,393.200 145.400 C 393.200 144.630,393.020 144.000,392.800 144.000 C 392.580 144.000,392.400 143.370,392.400 142.600 C 392.400 141.830,392.220 141.200,392.000 141.200 C 391.780 141.200,391.600 140.759,391.600 140.220 C 391.600 139.040,388.755 130.256,388.312 130.067 C 388.140 129.993,388.000 129.622,388.000 129.242 C 388.000 128.861,387.640 127.805,387.200 126.894 C 386.760 125.984,386.400 124.960,386.400 124.619 C 386.400 124.279,386.253 124.000,386.072 124.000 C 385.892 124.000,385.500 123.100,385.200 122.000 C 384.900 120.900,384.508 120.000,384.328 120.000 C 384.147 120.000,384.000 119.640,384.000 119.200 C 384.000 118.760,383.820 118.400,383.600 118.400 C 383.380 118.400,383.200 118.040,383.200 117.600 C 383.200 117.160,383.020 116.800,382.800 116.800 C 382.580 116.800,382.400 116.528,382.400 116.195 C 382.400 115.862,382.240 115.277,382.044 114.895 C 381.848 114.513,381.263 113.300,380.744 112.200 C 380.225 111.100,379.665 110.140,379.500 110.067 C 379.335 109.993,379.200 109.603,379.200 109.200 C 379.200 108.797,379.065 108.407,378.900 108.333 C 378.524 108.166,377.225 106.036,376.929 105.100 C 376.807 104.715,376.548 104.400,376.353 104.400 C 376.159 104.400,376.000 104.040,376.000 103.600 C 376.000 103.160,375.820 102.800,375.600 102.800 C 375.380 102.800,375.200 102.521,375.200 102.180 C 375.200 101.553,374.099 99.168,373.639 98.800 C 373.502 98.690,372.958 97.745,372.432 96.700 C 371.905 95.655,371.366 94.800,371.235 94.800 C 371.103 94.800,370.771 94.294,370.497 93.675 C 370.224 93.056,369.640 92.164,369.200 91.692 C 368.760 91.220,368.400 90.596,368.400 90.305 C 368.400 90.014,368.040 89.517,367.600 89.200 C 367.160 88.883,366.800 88.343,366.800 88.000 C 366.800 87.657,366.440 87.117,366.000 86.800 C 365.560 86.483,365.200 86.020,365.200 85.771 C 365.200 85.522,364.660 84.754,364.000 84.063 C 363.340 83.372,362.800 82.575,362.800 82.292 C 362.800 82.009,362.440 81.517,362.000 81.200 C 361.560 80.883,361.200 80.431,361.200 80.196 C 361.200 79.960,360.480 78.972,359.600 78.000 C 358.720 77.028,358.000 76.096,358.000 75.929 C 358.000 75.763,357.370 74.997,356.600 74.227 C 355.830 73.457,355.200 72.659,355.200 72.454 C 355.200 72.249,354.343 71.205,353.295 70.135 C 352.247 69.065,350.945 67.562,350.402 66.795 C 349.859 66.028,347.791 63.820,345.807 61.888 C 343.823 59.956,342.020 58.191,341.800 57.966 C 336.183 52.221,333.483 49.600,333.180 49.600 C 332.974 49.600,331.708 48.520,330.368 47.200 C 329.027 45.880,327.742 44.800,327.512 44.800 C 327.282 44.800,326.803 44.476,326.447 44.079 C 326.091 43.683,325.080 42.830,324.200 42.184 C 323.320 41.538,322.309 40.692,321.953 40.304 C 321.597 39.917,321.129 39.600,320.912 39.600 C 320.696 39.600,319.954 39.060,319.263 38.400 C 318.572 37.740,317.775 37.200,317.492 37.200 C 317.209 37.200,316.717 36.840,316.400 36.400 C 316.083 35.960,315.620 35.600,315.371 35.600 C 315.122 35.600,314.354 35.060,313.663 34.400 C 312.972 33.740,312.218 33.200,311.987 33.200 C 311.756 33.200,311.180 32.840,310.708 32.400 C 310.236 31.960,309.613 31.600,309.325 31.600 C 309.036 31.600,308.800 31.420,308.800 31.200 C 308.800 30.980,308.558 30.800,308.262 30.800 C 307.966 30.800,307.398 30.440,307.000 30.000 C 306.602 29.560,306.034 29.200,305.738 29.200 C 305.442 29.200,305.200 29.065,305.200 28.899 C 305.200 28.734,304.345 28.156,303.300 27.615 C 302.255 27.074,300.729 26.219,299.908 25.716 C 299.087 25.212,298.142 24.800,297.808 24.800 C 297.474 24.800,297.200 24.620,297.200 24.400 C 297.200 24.180,296.840 24.000,296.400 24.000 C 295.960 24.000,295.600 23.820,295.600 23.600 C 295.600 23.380,295.240 23.200,294.800 23.200 C 294.360 23.200,294.000 23.020,294.000 22.800 C 294.000 22.580,293.640 22.400,293.200 22.400 C 292.760 22.400,292.400 22.220,292.400 22.000 C 292.400 21.780,292.130 21.600,291.800 21.600 C 291.470 21.600,291.200 21.420,291.200 21.200 C 291.200 20.980,290.840 20.800,290.400 20.800 C 289.960 20.800,289.600 20.620,289.600 20.400 C 289.600 20.180,289.240 20.000,288.800 20.000 C 288.360 20.000,288.000 19.820,288.000 19.600 C 288.000 19.380,287.640 19.200,287.200 19.200 C 286.760 19.200,286.400 19.020,286.400 18.800 C 286.400 18.580,286.040 18.400,285.600 18.400 C 285.160 18.400,284.800 18.220,284.800 18.000 C 284.800 17.780,284.440 17.600,284.000 17.600 C 283.560 17.600,283.200 17.420,283.200 17.200 C 283.200 16.980,282.840 16.800,282.400 16.800 C 281.960 16.800,281.600 16.653,281.600 16.472 C 281.600 16.292,280.700 15.900,279.600 15.600 C 278.500 15.300,277.600 14.908,277.600 14.728 C 277.600 14.547,277.240 14.400,276.800 14.400 C 276.360 14.400,276.000 14.220,276.000 14.000 C 276.000 13.780,275.638 13.600,275.195 13.600 C 274.752 13.600,274.077 13.441,273.695 13.247 C 273.313 13.052,272.460 12.671,271.800 12.400 C 271.140 12.129,270.287 11.748,269.905 11.553 C 269.523 11.359,268.848 11.200,268.405 11.200 C 267.962 11.200,267.600 11.020,267.600 10.800 C 267.600 10.580,267.071 10.400,266.424 10.400 C 265.777 10.400,265.136 10.220,265.000 10.000 C 264.864 9.780,264.324 9.600,263.800 9.600 C 263.276 9.600,262.746 9.437,262.623 9.237 C 262.500 9.038,261.500 8.751,260.400 8.600 C 259.300 8.449,258.300 8.162,258.177 7.963 C 258.054 7.763,257.434 7.600,256.800 7.600 C 256.166 7.600,255.536 7.420,255.400 7.200 C 255.264 6.980,254.623 6.800,253.976 6.800 C 253.329 6.800,252.800 6.620,252.800 6.400 C 252.800 6.180,252.080 6.000,251.200 6.000 C 250.320 6.000,249.600 5.820,249.600 5.600 C 249.600 5.380,248.880 5.200,248.000 5.200 C 247.120 5.200,246.400 5.020,246.400 4.800 C 246.400 4.580,245.691 4.400,244.824 4.400 C 243.957 4.400,243.136 4.220,243.000 4.000 C 242.864 3.780,241.953 3.600,240.976 3.600 C 239.999 3.600,239.200 3.420,239.200 3.200 C 239.200 2.980,238.210 2.800,237.000 2.800 C 235.790 2.800,234.800 2.620,234.800 2.400 C 234.800 2.178,233.733 2.000,232.400 2.000 C 231.067 2.000,230.000 1.822,230.000 1.600 C 230.000 1.367,228.678 1.200,226.833 1.200 C 224.758 1.200,223.613 1.038,223.509 0.728 C 223.352 0.257,189.564 -0.100,180.300 0.272 M168.305 136.600 C 185.580 153.870,199.848 168.000,200.014 168.000 C 200.180 168.000,214.460 153.870,231.748 136.600 C 249.036 119.330,263.321 105.200,263.492 105.200 C 263.664 105.200,270.816 112.213,279.385 120.785 L 294.967 136.371 293.983 137.440 C 293.443 138.028,279.275 152.246,262.500 169.036 C 245.725 185.826,232.000 199.721,232.000 199.912 C 232.000 200.104,246.130 214.406,263.400 231.695 C 280.670 248.983,294.800 263.280,294.800 263.466 C 294.800 263.652,287.782 270.820,279.204 279.396 L 263.609 294.987 260.765 292.194 C 259.201 290.657,244.993 276.485,229.192 260.700 C 213.391 244.915,200.260 232.000,200.013 232.000 C 199.766 232.000,185.826 245.725,169.036 262.500 C 152.246 279.275,138.028 293.443,137.440 293.983 L 136.371 294.967 120.785 279.385 C 112.213 270.816,105.200 263.664,105.200 263.492 C 105.200 263.321,119.330 249.036,136.600 231.748 C 153.870 214.460,168.000 200.140,168.000 199.926 C 168.000 199.711,154.275 185.801,137.500 169.015 C 120.725 152.228,106.568 138.028,106.041 137.458 L 105.082 136.423 120.641 120.828 C 129.198 112.251,136.357 105.226,136.549 105.217 C 136.741 105.208,151.031 119.330,168.305 136.600 " stroke="none" fill="#e41c1c" fill-rule="evenodd"></path><path id="path2" d="M133.660 107.800 C 130.662 110.952,130.922 111.272,133.981 108.194 C 136.536 105.623,136.566 105.617,138.281 107.278 C 139.006 107.982,139.600 108.360,139.600 108.120 C 139.600 107.642,136.968 105.200,136.452 105.200 C 136.277 105.200,135.020 106.370,133.660 107.800 M253.631 114.720 C 248.334 119.956,244.000 124.406,244.000 124.609 C 244.000 124.812,248.414 120.578,253.809 115.200 L 263.617 105.421 278.809 120.609 C 287.164 128.962,294.000 136.067,294.000 136.399 C 294.000 136.731,279.960 151.041,262.800 168.200 C 245.640 185.359,231.600 199.672,231.600 200.007 C 231.600 200.341,233.400 202.408,235.600 204.600 C 237.800 206.792,239.600 208.401,239.600 208.176 C 239.600 207.951,237.890 206.081,235.800 204.021 C 233.710 201.960,232.000 200.115,232.000 199.919 C 232.000 199.724,245.725 185.826,262.500 169.036 C 279.275 152.246,293.443 138.028,293.983 137.440 L 294.967 136.371 279.385 120.785 C 270.816 112.213,263.682 105.200,263.533 105.200 C 263.384 105.200,258.928 109.484,253.631 114.720 M130.060 111.442 C 129.762 111.778,129.599 112.132,129.695 112.229 C 129.792 112.326,130.198 112.044,130.598 111.602 C 130.997 111.161,131.161 110.807,130.962 110.815 C 130.763 110.824,130.357 111.105,130.060 111.442 M149.792 118.736 C 153.528 122.483,156.667 125.466,156.768 125.365 C 157.013 125.120,144.823 112.877,143.800 112.342 C 143.360 112.111,146.056 114.989,149.792 118.736 M128.086 113.454 C 127.583 113.974,127.330 114.400,127.524 114.400 C 127.948 114.400,129.397 112.855,129.164 112.651 C 129.074 112.572,128.589 112.933,128.086 113.454 M120.632 120.806 C 117.349 124.101,114.740 126.874,114.834 126.967 C 114.928 127.061,117.777 124.362,121.167 120.969 C 124.556 117.576,127.165 114.803,126.964 114.808 C 126.764 114.812,123.914 117.511,120.632 120.806 M235.514 132.900 C 231.261 137.135,227.159 141.320,226.400 142.200 C 225.640 143.080,229.199 139.661,234.309 134.603 C 239.419 129.545,243.600 125.360,243.600 125.303 C 243.600 124.916,242.408 126.036,235.514 132.900 M113.286 128.254 C 112.783 128.774,112.530 129.200,112.724 129.200 C 113.148 129.200,114.597 127.655,114.364 127.451 C 114.274 127.372,113.789 127.733,113.286 128.254 M166.600 135.600 C 173.049 142.058,173.200 142.199,173.200 141.753 C 173.200 141.332,161.028 129.200,160.606 129.200 C 160.388 129.200,163.085 132.080,166.600 135.600 M111.260 130.242 C 110.962 130.578,110.799 130.932,110.895 131.029 C 110.992 131.126,111.398 130.844,111.798 130.402 C 112.197 129.961,112.361 129.607,112.162 129.615 C 111.963 129.624,111.557 129.905,111.260 130.242 M107.607 133.832 L 105.014 136.350 106.007 137.412 C 109.409 141.049,124.488 156.045,124.615 155.918 C 124.700 155.833,120.547 151.543,115.385 146.385 C 110.223 141.227,106.000 136.819,106.000 136.591 C 106.000 136.362,107.021 135.146,108.268 133.889 C 111.375 130.757,110.821 130.709,107.607 133.832 M212.265 156.018 C 205.700 162.608,200.189 168.000,200.019 168.000 C 199.848 168.000,198.559 166.816,197.154 165.370 C 195.749 163.923,194.240 162.553,193.800 162.325 C 193.360 162.097,194.436 163.370,196.191 165.155 C 197.945 166.940,199.657 168.400,199.993 168.400 C 200.330 168.400,206.093 162.910,212.800 156.200 C 219.507 149.490,224.816 144.008,224.598 144.018 C 224.379 144.029,218.829 149.429,212.265 156.018 M182.981 151.943 C 186.491 155.478,189.453 158.281,189.564 158.170 C 189.817 157.916,178.486 146.526,177.400 145.943 C 176.960 145.707,179.471 148.407,182.981 151.943 M127.206 158.543 C 128.413 159.832,138.085 169.581,148.700 180.207 C 159.315 190.834,168.000 199.708,168.000 199.928 C 168.000 200.148,162.600 205.725,156.000 212.321 C 149.400 218.917,144.000 224.467,144.000 224.654 C 144.000 224.842,149.490 219.507,156.200 212.800 C 162.910 206.093,168.400 200.333,168.400 200.001 C 168.400 199.669,158.638 189.678,146.706 177.799 C 134.775 165.919,126.000 157.254,127.206 158.543 M249.792 218.736 C 253.528 222.483,256.667 225.466,256.768 225.365 C 257.013 225.120,244.823 212.877,243.800 212.342 C 243.360 212.111,246.056 214.989,249.792 218.736 M135.514 232.900 C 131.261 237.135,127.159 241.320,126.400 242.200 C 125.640 243.080,129.199 239.661,134.309 234.603 C 139.419 229.545,143.600 225.360,143.600 225.303 C 143.600 224.916,142.408 226.036,135.514 232.900 M266.600 235.600 C 273.049 242.058,273.200 242.199,273.200 241.753 C 273.200 241.332,261.028 229.200,260.606 229.200 C 260.388 229.200,263.085 232.080,266.600 235.600 M168.200 262.800 C 151.041 279.960,136.789 294.000,136.530 294.000 C 135.903 294.000,106.000 264.107,106.000 263.481 C 106.000 263.213,110.223 258.773,115.385 253.615 C 120.547 248.457,124.683 244.150,124.578 244.045 C 124.364 243.831,105.200 263.104,105.200 263.533 C 105.200 263.682,112.213 270.816,120.785 279.385 L 136.371 294.967 137.440 293.983 C 138.028 293.443,152.246 279.275,169.036 262.500 C 185.826 245.725,199.765 232.000,200.011 232.000 C 200.257 232.000,205.853 237.400,212.446 244.000 C 219.040 250.600,224.561 256.000,224.715 256.000 C 224.869 256.000,219.507 250.510,212.800 243.800 C 206.093 237.090,200.333 231.600,200.001 231.600 C 199.670 231.600,185.359 245.640,168.200 262.800 M282.981 251.943 C 286.491 255.478,289.453 258.281,289.564 258.170 C 289.817 257.916,278.486 246.526,277.400 245.943 C 276.960 245.707,279.471 248.407,282.981 251.943 M227.204 258.552 C 230.707 262.303,263.308 294.800,263.568 294.800 C 263.698 294.800,270.786 287.816,279.320 279.280 C 294.824 263.772,295.543 262.924,293.768 262.243 C 293.285 262.058,293.288 262.162,293.788 262.925 C 294.361 263.801,293.948 264.255,278.993 279.207 L 263.608 294.588 244.308 275.394 C 233.693 264.837,225.996 257.258,227.204 258.552 " stroke="none" fill="#ec4c4c" fill-rule="evenodd"></path><path id="path3" d="M278.600 120.800 C 286.958 129.160,293.886 136.000,293.996 136.000 C 294.106 136.000,287.358 129.160,279.000 120.800 C 270.642 112.440,263.714 105.600,263.604 105.600 C 263.494 105.600,270.242 112.440,278.600 120.800 M278.798 279.100 L 263.400 294.600 278.900 279.202 C 293.306 264.891,294.580 263.600,294.298 263.600 C 294.242 263.600,287.267 270.575,278.798 279.100 " stroke="none" fill="#f48c8c" fill-rule="evenodd"></path><path id="path4" d="M121.016 121.184 C 112.666 129.536,105.917 136.421,106.018 136.484 C 106.118 136.548,113.043 129.715,121.407 121.300 C 129.771 112.885,136.520 106.000,136.405 106.000 C 136.290 106.000,129.365 112.833,121.016 121.184 M278.593 121.300 C 286.957 129.715,293.882 136.548,293.982 136.484 C 294.185 136.356,263.926 106.000,263.595 106.000 C 263.480 106.000,270.229 112.885,278.593 121.300 M168.199 137.500 C 185.359 154.715,199.444 168.800,199.499 168.800 C 199.779 168.800,197.397 166.402,168.300 137.399 L 137.000 106.200 168.199 137.500 M231.400 137.600 C 214.241 154.760,200.292 168.800,200.402 168.800 C 200.512 168.800,214.641 154.760,231.800 137.600 C 248.959 120.440,262.908 106.400,262.798 106.400 C 262.688 106.400,248.559 120.440,231.400 137.600 M137.399 168.300 C 166.402 197.397,168.800 199.779,168.800 199.499 C 168.800 199.444,154.715 185.359,137.500 168.199 L 106.200 137.000 137.399 168.300 M262.200 168.400 C 245.041 185.560,231.092 199.600,231.202 199.600 C 231.312 199.600,245.441 185.560,262.600 168.400 C 279.759 151.240,293.708 137.200,293.598 137.200 C 293.488 137.200,279.359 151.240,262.200 168.400 M137.400 231.600 C 120.241 248.760,106.292 262.800,106.402 262.800 C 106.512 262.800,120.641 248.760,137.800 231.600 C 154.959 214.440,168.908 200.400,168.798 200.400 C 168.688 200.400,154.559 214.440,137.400 231.600 M262.300 231.601 C 279.515 248.871,293.600 263.185,293.600 263.408 C 293.600 263.631,286.799 270.606,278.488 278.907 C 270.176 287.208,263.472 294.000,263.590 294.000 C 263.989 294.000,294.000 263.799,294.000 263.397 C 294.000 263.178,279.825 248.869,262.500 231.599 L 231.000 200.200 262.300 231.601 M168.200 262.400 C 151.041 279.560,137.092 293.600,137.202 293.600 C 137.312 293.600,151.441 279.560,168.600 262.400 C 185.759 245.240,199.708 231.200,199.598 231.200 C 199.488 231.200,185.359 245.240,168.200 262.400 M231.399 262.300 C 260.402 291.397,262.800 293.779,262.800 293.499 C 262.800 293.444,248.715 279.359,231.500 262.199 L 200.200 231.000 231.399 262.300 M106.000 263.595 C 106.000 263.926,136.356 294.185,136.484 293.982 C 136.548 293.882,129.715 286.957,121.300 278.593 C 112.885 270.229,106.000 263.480,106.000 263.595 " stroke="none" fill="#f49494" fill-rule="evenodd"></path></g></svg>