<svg id="svg" version="1.1" xmlns="http://www.w3.org/2000/svg" xmlns:xlink="http://www.w3.org/1999/xlink" width="400" height="400" viewBox="0, 0, 400,400"><g id="svgg"><path id="path0" d="M223.826 168.143 C 193.768 198.204,168.970 222.800,168.721 222.800 C 168.471 222.800,162.042 216.603,154.433 209.028 C 133.667 188.354,121.832 176.804,121.522 176.907 C 120.922 177.107,90.000 207.582,90.000 207.973 C 90.000 208.192,162.998 280.975,168.642 286.383 C 168.944 286.673,310.000 145.462,310.000 144.869 C 310.000 144.577,309.235 143.610,308.300 142.722 C 305.131 139.710,292.233 127.104,285.339 120.278 L 278.477 113.486 223.826 168.143 " stroke="none" fill="#d3e3f3" fill-rule="evenodd"></path><path id="path1" d="M177.900 0.275 C 175.755 0.360,174.000 0.602,174.000 0.814 C 174.000 1.027,172.740 1.200,171.200 1.200 C 169.600 1.200,168.400 1.371,168.400 1.600 C 168.400 1.822,167.333 2.000,166.000 2.000 C 164.667 2.000,163.600 2.178,163.600 2.400 C 163.600 2.620,162.700 2.800,161.600 2.800 C 160.500 2.800,159.600 2.980,159.600 3.200 C 159.600 3.420,158.790 3.600,157.800 3.600 C 156.810 3.600,156.000 3.780,156.000 4.000 C 156.000 4.220,155.201 4.400,154.224 4.400 C 153.247 4.400,152.336 4.580,152.200 4.800 C 152.064 5.020,151.344 5.200,150.600 5.200 C 149.856 5.200,149.136 5.380,149.000 5.600 C 148.864 5.820,148.223 6.000,147.576 6.000 C 146.929 6.000,146.400 6.180,146.400 6.400 C 146.400 6.620,145.781 6.800,145.024 6.800 C 144.267 6.800,143.536 6.980,143.400 7.200 C 143.264 7.420,142.713 7.600,142.176 7.600 C 141.639 7.600,141.200 7.780,141.200 8.000 C 141.200 8.220,140.480 8.400,139.600 8.400 C 138.720 8.400,138.000 8.591,138.000 8.824 C 138.000 9.057,137.833 9.144,137.630 9.019 C 137.426 8.893,136.841 8.959,136.330 9.165 C 135.818 9.371,134.545 9.773,133.500 10.057 C 132.455 10.342,131.600 10.715,131.600 10.887 C 131.600 11.059,131.161 11.200,130.624 11.200 C 130.087 11.200,129.536 11.380,129.400 11.600 C 129.264 11.820,128.713 12.000,128.176 12.000 C 127.639 12.000,127.200 12.180,127.200 12.400 C 127.200 12.620,126.851 12.800,126.424 12.800 C 125.997 12.800,125.536 12.980,125.400 13.200 C 125.264 13.420,124.713 13.600,124.176 13.600 C 123.639 13.600,123.200 13.780,123.200 14.000 C 123.200 14.220,122.840 14.400,122.400 14.400 C 121.960 14.400,121.600 14.580,121.600 14.800 C 121.600 15.020,121.161 15.200,120.624 15.200 C 120.087 15.200,119.536 15.380,119.400 15.600 C 119.264 15.820,118.803 16.000,118.376 16.000 C 117.949 16.000,117.600 16.180,117.600 16.400 C 117.600 16.620,117.240 16.800,116.800 16.800 C 116.360 16.800,116.000 16.980,116.000 17.200 C 116.000 17.420,115.640 17.600,115.200 17.600 C 114.760 17.600,114.400 17.780,114.400 18.000 C 114.400 18.220,114.040 18.400,113.600 18.400 C 113.160 18.400,112.800 18.580,112.800 18.800 C 112.800 19.020,112.440 19.200,112.000 19.200 C 111.560 19.200,111.200 19.380,111.200 19.600 C 111.200 19.820,110.840 20.000,110.400 20.000 C 109.960 20.000,109.600 20.180,109.600 20.400 C 109.600 20.620,109.330 20.800,109.000 20.800 C 108.670 20.800,108.400 20.980,108.400 21.200 C 108.400 21.420,108.040 21.600,107.600 21.600 C 107.160 21.600,106.800 21.780,106.800 22.000 C 106.800 22.220,106.440 22.400,106.000 22.400 C 105.560 22.400,105.200 22.580,105.200 22.800 C 105.200 23.020,104.840 23.200,104.400 23.200 C 103.960 23.200,103.600 23.380,103.600 23.600 C 103.600 23.820,103.240 24.000,102.800 24.000 C 102.360 24.000,102.000 24.180,102.000 24.400 C 102.000 24.620,101.662 24.800,101.249 24.800 C 100.836 24.800,100.274 25.070,100.000 25.400 C 99.726 25.730,99.276 26.000,99.000 26.000 C 98.724 26.000,98.270 26.274,97.992 26.610 C 97.714 26.945,97.399 27.132,97.292 27.025 C 97.185 26.919,96.324 27.364,95.377 28.016 C 94.430 28.667,93.503 29.200,93.316 29.200 C 93.129 29.200,92.717 29.560,92.400 30.000 C 92.083 30.440,91.543 30.800,91.200 30.800 C 90.857 30.800,90.317 31.160,90.000 31.600 C 89.683 32.040,89.143 32.400,88.800 32.400 C 88.457 32.400,87.917 32.760,87.600 33.200 C 87.283 33.640,86.743 34.000,86.400 34.000 C 86.057 34.000,85.517 34.360,85.200 34.800 C 84.883 35.240,84.420 35.600,84.171 35.600 C 83.922 35.600,83.154 36.140,82.463 36.800 C 81.772 37.460,81.002 38.000,80.751 38.000 C 80.499 38.000,80.003 38.324,79.647 38.719 C 79.291 39.114,78.370 39.871,77.600 40.400 C 76.830 40.929,76.110 41.461,76.000 41.583 C 75.890 41.705,75.080 42.336,74.200 42.985 C 73.320 43.635,72.123 44.669,71.540 45.283 C 70.956 45.897,70.307 46.400,70.097 46.400 C 69.084 46.400,46.400 69.033,46.400 70.044 C 46.400 70.232,45.590 71.231,44.600 72.265 C 43.610 73.298,42.800 74.315,42.800 74.525 C 42.800 74.734,42.476 75.197,42.081 75.553 C 41.686 75.909,40.929 76.830,40.400 77.600 C 39.871 78.370,39.114 79.291,38.719 79.647 C 38.324 80.003,38.000 80.453,37.999 80.647 C 37.999 80.841,37.459 81.630,36.800 82.400 C 36.141 83.170,35.601 83.985,35.601 84.212 C 35.600 84.438,35.240 84.883,34.800 85.200 C 34.360 85.517,34.000 86.057,34.000 86.400 C 34.000 86.743,33.640 87.283,33.200 87.600 C 32.760 87.917,32.400 88.457,32.400 88.800 C 32.400 89.143,32.040 89.683,31.600 90.000 C 31.160 90.317,30.800 90.882,30.800 91.255 C 30.800 91.628,30.653 91.993,30.472 92.067 C 30.006 92.256,27.080 96.718,26.264 98.483 C 25.887 99.299,25.403 100.074,25.189 100.207 C 24.975 100.339,24.800 100.797,24.800 101.224 C 24.800 101.651,24.620 102.000,24.400 102.000 C 24.180 102.000,24.000 102.360,24.000 102.800 C 24.000 103.240,23.820 103.600,23.600 103.600 C 23.380 103.600,23.200 103.960,23.200 104.400 C 23.200 104.840,23.020 105.200,22.800 105.200 C 22.580 105.200,22.400 105.560,22.400 106.000 C 22.400 106.440,22.220 106.800,22.000 106.800 C 21.780 106.800,21.600 107.160,21.600 107.600 C 21.600 108.040,21.420 108.400,21.200 108.400 C 20.980 108.400,20.800 108.670,20.800 109.000 C 20.800 109.330,20.620 109.600,20.400 109.600 C 20.180 109.600,20.000 109.960,20.000 110.400 C 20.000 110.840,19.820 111.200,19.600 111.200 C 19.380 111.200,19.200 111.560,19.200 112.000 C 19.200 112.440,19.020 112.800,18.800 112.800 C 18.580 112.800,18.400 113.160,18.400 113.600 C 18.400 114.040,18.220 114.400,18.000 114.400 C 17.780 114.400,17.600 114.760,17.600 115.200 C 17.600 115.640,17.420 116.000,17.200 116.000 C 16.980 116.000,16.800 116.360,16.800 116.800 C 16.800 117.240,16.620 117.600,16.400 117.600 C 16.180 117.600,16.000 117.949,16.000 118.376 C 16.000 118.803,15.820 119.264,15.600 119.400 C 15.380 119.536,15.200 120.087,15.200 120.624 C 15.200 121.161,15.020 121.600,14.800 121.600 C 14.580 121.600,14.400 121.960,14.400 122.400 C 14.400 122.840,14.220 123.200,14.000 123.200 C 13.780 123.200,13.600 123.740,13.600 124.400 C 13.600 125.060,13.420 125.600,13.200 125.600 C 12.980 125.600,12.800 125.960,12.800 126.400 C 12.800 126.840,12.620 127.200,12.400 127.200 C 12.180 127.200,12.000 127.639,12.000 128.176 C 12.000 128.713,11.820 129.264,11.600 129.400 C 11.380 129.536,11.200 130.072,11.200 130.590 C 11.200 131.109,11.059 131.593,10.887 131.667 C 10.370 131.887,8.400 138.351,8.400 139.828 C 8.400 140.582,8.220 141.200,8.000 141.200 C 7.780 141.200,7.600 141.639,7.600 142.176 C 7.600 142.713,7.420 143.264,7.200 143.400 C 6.980 143.536,6.800 144.166,6.800 144.800 C 6.800 145.434,6.620 146.064,6.400 146.200 C 6.180 146.336,6.000 146.966,6.000 147.600 C 6.000 148.234,5.820 148.864,5.600 149.000 C 5.380 149.136,5.200 149.856,5.200 150.600 C 5.200 151.344,5.020 152.064,4.800 152.200 C 4.580 152.336,4.400 153.247,4.400 154.224 C 4.400 155.201,4.220 156.000,4.000 156.000 C 3.780 156.000,3.600 156.709,3.600 157.576 C 3.600 158.443,3.420 159.264,3.200 159.400 C 2.980 159.536,2.800 160.537,2.800 161.624 C 2.800 162.711,2.620 163.600,2.400 163.600 C 2.178 163.600,2.000 164.667,2.000 166.000 C 2.000 167.333,1.822 168.400,1.600 168.400 C 1.372 168.400,1.200 169.589,1.200 171.167 C 1.200 173.024,1.036 173.988,0.700 174.100 C -0.032 174.344,-0.032 224.856,0.700 225.100 C 1.035 225.212,1.200 226.171,1.200 228.010 C 1.200 229.518,1.380 230.864,1.600 231.000 C 1.820 231.136,2.000 232.317,2.000 233.624 C 2.000 234.941,2.178 236.000,2.400 236.000 C 2.620 236.000,2.800 236.900,2.800 238.000 C 2.800 239.100,2.980 240.000,3.200 240.000 C 3.420 240.000,3.600 240.799,3.600 241.776 C 3.600 242.753,3.780 243.664,4.000 243.800 C 4.220 243.936,4.400 244.757,4.400 245.624 C 4.400 246.491,4.580 247.200,4.800 247.200 C 5.020 247.200,5.200 247.920,5.200 248.800 C 5.200 249.680,5.380 250.400,5.600 250.400 C 5.820 250.400,6.000 251.019,6.000 251.776 C 6.000 252.533,6.180 253.264,6.400 253.400 C 6.620 253.536,6.800 254.177,6.800 254.824 C 6.800 255.471,6.980 256.000,7.200 256.000 C 7.420 256.000,7.600 256.630,7.600 257.400 C 7.600 258.170,7.780 258.800,8.000 258.800 C 8.220 258.800,8.400 259.229,8.400 259.754 C 8.400 260.645,9.285 263.982,10.003 265.800 C 10.177 266.240,10.536 267.230,10.800 268.000 C 11.382 269.693,11.971 271.160,12.447 272.095 C 12.641 272.477,12.800 273.152,12.800 273.595 C 12.800 274.038,12.980 274.400,13.200 274.400 C 13.420 274.400,13.600 274.760,13.600 275.200 C 13.600 275.640,13.780 276.000,14.000 276.000 C 14.220 276.000,14.400 276.439,14.400 276.976 C 14.400 277.513,14.580 278.064,14.800 278.200 C 15.020 278.336,15.200 278.797,15.200 279.224 C 15.200 279.651,15.380 280.000,15.600 280.000 C 15.820 280.000,16.000 280.360,16.000 280.800 C 16.000 281.240,16.180 281.600,16.400 281.600 C 16.620 281.600,16.800 281.872,16.800 282.205 C 16.800 282.538,16.980 283.168,17.200 283.605 C 17.420 284.042,17.780 284.758,18.000 285.195 C 18.220 285.632,18.400 286.262,18.400 286.595 C 18.400 286.928,18.535 287.201,18.700 287.201 C 18.865 287.202,19.450 288.192,20.000 289.400 C 20.550 290.608,21.135 291.598,21.300 291.599 C 21.465 291.599,21.600 291.960,21.600 292.400 C 21.600 292.840,21.780 293.200,22.000 293.200 C 22.220 293.200,22.400 293.560,22.400 294.000 C 22.400 294.440,22.580 294.800,22.800 294.800 C 23.020 294.800,23.200 295.036,23.200 295.325 C 23.200 295.613,23.560 296.236,24.000 296.708 C 24.440 297.180,24.800 297.761,24.800 297.999 C 24.800 298.780,26.406 301.600,26.851 301.600 C 27.090 301.600,27.182 301.870,27.055 302.200 C 26.929 302.530,26.999 302.800,27.213 302.800 C 27.426 302.800,27.600 302.993,27.600 303.228 C 27.600 303.463,28.140 304.441,28.800 305.400 C 29.460 306.359,30.000 307.297,30.000 307.484 C 30.000 307.671,30.360 308.083,30.800 308.400 C 31.240 308.717,31.600 309.257,31.600 309.600 C 31.600 309.943,31.960 310.483,32.400 310.800 C 32.840 311.117,33.200 311.657,33.200 312.000 C 33.200 312.343,33.560 312.883,34.000 313.200 C 34.440 313.517,34.800 314.009,34.800 314.292 C 34.800 314.575,35.340 315.372,36.000 316.063 C 36.660 316.754,37.200 317.522,37.200 317.771 C 37.200 318.020,37.560 318.483,38.000 318.800 C 38.440 319.117,38.800 319.625,38.800 319.928 C 38.800 320.231,39.296 320.956,39.901 321.540 C 40.507 322.123,41.535 323.320,42.187 324.200 C 42.838 325.080,43.603 326.038,43.886 326.329 C 44.168 326.619,44.400 327.020,44.400 327.218 C 44.400 327.417,45.167 328.349,46.105 329.289 C 47.043 330.230,48.255 331.630,48.799 332.400 C 49.804 333.824,56.763 340.824,58.441 342.100 C 58.948 342.485,59.234 342.800,59.076 342.800 C 58.633 342.800,66.023 350.081,67.600 351.198 C 68.370 351.743,69.770 352.957,70.711 353.895 C 71.651 354.833,72.574 355.600,72.760 355.600 C 72.947 355.600,73.787 356.230,74.628 357.000 C 75.469 357.770,76.295 358.400,76.465 358.400 C 76.635 358.400,77.403 359.030,78.173 359.800 C 78.943 360.570,79.810 361.200,80.098 361.200 C 80.387 361.200,80.883 361.560,81.200 362.000 C 81.517 362.440,81.980 362.800,82.229 362.800 C 82.478 362.800,83.246 363.340,83.937 364.000 C 84.628 364.660,85.425 365.200,85.708 365.200 C 85.991 365.200,86.483 365.560,86.800 366.000 C 87.117 366.440,87.657 366.800,88.000 366.800 C 88.343 366.800,88.883 367.160,89.200 367.600 C 89.517 368.040,90.057 368.400,90.400 368.400 C 90.743 368.400,91.283 368.760,91.600 369.200 C 91.917 369.640,92.329 370.000,92.516 370.000 C 92.703 370.000,93.641 370.540,94.600 371.200 C 95.559 371.860,96.537 372.400,96.772 372.400 C 97.007 372.400,97.200 372.580,97.200 372.800 C 97.200 373.020,97.397 373.200,97.638 373.200 C 97.879 373.200,98.565 373.548,99.163 373.973 C 99.760 374.399,100.772 374.878,101.411 375.039 C 102.050 375.199,102.928 375.661,103.362 376.065 C 103.796 376.469,104.387 376.800,104.675 376.800 C 104.964 376.800,105.200 376.980,105.200 377.200 C 105.200 377.420,105.560 377.600,106.000 377.600 C 106.440 377.600,106.800 377.780,106.800 378.000 C 106.800 378.220,107.160 378.400,107.600 378.400 C 108.040 378.400,108.400 378.580,108.400 378.800 C 108.400 379.020,108.745 379.200,109.167 379.200 C 109.588 379.200,109.993 379.335,110.067 379.500 C 110.140 379.665,111.100 380.225,112.200 380.744 C 113.300 381.263,114.513 381.848,114.895 382.044 C 115.277 382.240,115.862 382.400,116.195 382.400 C 116.528 382.400,116.800 382.580,116.800 382.800 C 116.800 383.020,117.160 383.200,117.600 383.200 C 118.040 383.200,118.400 383.380,118.400 383.600 C 118.400 383.820,118.760 384.000,119.200 384.000 C 119.640 384.000,120.000 384.180,120.000 384.400 C 120.000 384.620,120.349 384.800,120.776 384.800 C 121.203 384.800,121.664 384.980,121.800 385.200 C 121.936 385.420,122.487 385.600,123.024 385.600 C 123.561 385.600,124.000 385.780,124.000 386.000 C 124.000 386.220,124.360 386.400,124.800 386.400 C 125.240 386.400,125.600 386.580,125.600 386.800 C 125.600 387.020,125.962 387.200,126.405 387.200 C 126.848 387.200,127.523 387.359,127.905 387.553 C 128.840 388.029,130.307 388.618,132.000 389.200 C 132.770 389.464,133.760 389.823,134.200 389.997 C 136.018 390.715,139.355 391.600,140.246 391.600 C 140.771 391.600,141.200 391.780,141.200 392.000 C 141.200 392.220,141.830 392.400,142.600 392.400 C 143.370 392.400,144.000 392.580,144.000 392.800 C 144.000 393.020,144.529 393.200,145.176 393.200 C 145.823 393.200,146.464 393.380,146.600 393.600 C 146.736 393.820,147.467 394.000,148.224 394.000 C 148.981 394.000,149.600 394.180,149.600 394.400 C 149.600 394.620,150.320 394.800,151.200 394.800 C 152.080 394.800,152.800 394.980,152.800 395.200 C 152.800 395.420,153.509 395.600,154.376 395.600 C 155.243 395.600,156.064 395.780,156.200 396.000 C 156.336 396.220,157.247 396.400,158.224 396.400 C 159.201 396.400,160.000 396.580,160.000 396.800 C 160.000 397.020,160.990 397.200,162.200 397.200 C 163.410 397.200,164.400 397.380,164.400 397.600 C 164.400 397.820,165.379 398.000,166.576 398.000 C 167.773 398.000,168.864 398.180,169.000 398.400 C 169.136 398.620,170.482 398.800,171.990 398.800 C 173.829 398.800,174.788 398.965,174.900 399.300 C 175.144 400.032,224.856 400.032,225.100 399.300 C 225.212 398.965,226.171 398.800,228.010 398.800 C 229.518 398.800,230.864 398.620,231.000 398.400 C 231.136 398.180,232.216 398.000,233.400 398.000 C 234.584 398.000,235.664 397.820,235.800 397.600 C 235.936 397.380,236.937 397.200,238.024 397.200 C 239.111 397.200,240.000 397.020,240.000 396.800 C 240.000 396.580,240.709 396.400,241.576 396.400 C 242.443 396.400,243.264 396.220,243.400 396.000 C 243.536 395.780,244.447 395.600,245.424 395.600 C 246.401 395.600,247.200 395.420,247.200 395.200 C 247.200 394.980,247.920 394.800,248.800 394.800 C 249.680 394.800,250.400 394.620,250.400 394.400 C 250.400 394.180,251.019 394.000,251.776 394.000 C 252.533 394.000,253.264 393.820,253.400 393.600 C 253.536 393.380,254.177 393.200,254.824 393.200 C 255.471 393.200,256.000 393.020,256.000 392.800 C 256.000 392.580,256.630 392.400,257.400 392.400 C 258.170 392.400,258.800 392.241,258.800 392.046 C 258.800 391.851,259.787 391.569,260.994 391.418 C 262.200 391.267,263.291 390.977,263.417 390.772 C 263.544 390.567,264.076 390.400,264.600 390.400 C 265.124 390.400,265.664 390.220,265.800 390.000 C 265.936 389.780,266.399 389.600,266.829 389.600 C 267.259 389.600,267.923 389.441,268.305 389.247 C 268.687 389.052,269.540 388.671,270.200 388.400 C 270.860 388.129,271.713 387.748,272.095 387.553 C 272.477 387.359,273.152 387.200,273.595 387.200 C 274.038 387.200,274.400 387.020,274.400 386.800 C 274.400 386.580,274.760 386.400,275.200 386.400 C 275.640 386.400,276.000 386.220,276.000 386.000 C 276.000 385.780,276.540 385.600,277.200 385.600 C 277.860 385.600,278.400 385.420,278.400 385.200 C 278.400 384.980,278.760 384.800,279.200 384.800 C 279.640 384.800,280.000 384.620,280.000 384.400 C 280.000 384.180,280.360 384.000,280.800 384.000 C 281.240 384.000,281.600 383.820,281.600 383.600 C 281.600 383.380,281.872 383.200,282.205 383.200 C 282.793 383.200,283.218 383.033,285.095 382.062 C 285.587 381.808,286.262 381.600,286.595 381.600 C 286.928 381.600,287.201 381.465,287.201 381.300 C 287.202 381.135,288.192 380.550,289.400 380.000 C 290.608 379.450,291.598 378.865,291.599 378.700 C 291.599 378.535,291.960 378.400,292.400 378.400 C 292.840 378.400,293.200 378.220,293.200 378.000 C 293.200 377.780,293.560 377.600,294.000 377.600 C 294.440 377.600,294.800 377.420,294.800 377.200 C 294.800 376.980,295.036 376.800,295.325 376.800 C 295.613 376.800,296.236 376.440,296.708 376.000 C 297.180 375.560,297.775 375.200,298.029 375.200 C 298.611 375.200,302.553 373.105,302.733 372.700 C 302.807 372.535,303.044 372.400,303.261 372.400 C 303.478 372.400,304.441 371.860,305.400 371.200 C 306.359 370.540,307.297 370.000,307.484 370.000 C 307.671 370.000,308.083 369.640,308.400 369.200 C 308.717 368.760,309.257 368.400,309.600 368.400 C 309.943 368.400,310.483 368.040,310.800 367.600 C 311.117 367.160,311.657 366.800,312.000 366.800 C 312.343 366.800,312.883 366.440,313.200 366.000 C 313.517 365.560,314.009 365.200,314.292 365.200 C 314.575 365.200,315.372 364.660,316.063 364.000 C 316.754 363.340,317.522 362.800,317.771 362.800 C 318.020 362.800,318.483 362.440,318.800 362.000 C 319.117 361.560,319.613 361.200,319.902 361.200 C 320.190 361.200,321.057 360.570,321.827 359.800 C 322.597 359.030,323.365 358.400,323.535 358.400 C 323.705 358.400,324.531 357.770,325.372 357.000 C 326.213 356.230,327.053 355.600,327.240 355.600 C 327.426 355.600,328.349 354.833,329.289 353.895 C 330.230 352.957,331.630 351.745,332.400 351.201 C 333.170 350.658,335.561 348.410,337.713 346.207 C 342.418 341.389,341.389 342.418,346.207 337.713 C 348.410 335.561,350.658 333.170,351.201 332.400 C 351.745 331.630,352.957 330.230,353.895 329.289 C 354.833 328.349,355.600 327.426,355.600 327.240 C 355.600 327.054,356.320 326.113,357.200 325.151 C 358.080 324.188,358.800 323.247,358.800 323.061 C 358.800 322.874,359.340 322.217,360.000 321.600 C 360.660 320.983,361.200 320.231,361.200 319.928 C 361.200 319.625,361.560 319.117,362.000 318.800 C 362.440 318.483,362.800 318.020,362.800 317.771 C 362.800 317.522,363.340 316.754,364.000 316.063 C 364.660 315.372,365.200 314.575,365.200 314.292 C 365.200 314.009,365.560 313.517,366.000 313.200 C 366.440 312.883,366.800 312.343,366.800 312.000 C 366.800 311.657,367.160 311.117,367.600 310.800 C 368.040 310.483,368.400 309.943,368.400 309.600 C 368.400 309.257,368.760 308.717,369.200 308.400 C 369.640 308.083,370.000 307.671,370.000 307.484 C 370.000 307.297,370.540 306.359,371.200 305.400 C 371.860 304.441,372.400 303.463,372.400 303.228 C 372.400 302.993,372.580 302.800,372.800 302.800 C 373.020 302.800,373.200 302.440,373.200 302.000 C 373.200 301.560,373.347 301.200,373.526 301.200 C 373.874 301.200,375.200 298.642,375.200 297.970 C 375.200 297.748,375.560 297.180,376.000 296.708 C 376.440 296.236,376.800 295.613,376.800 295.325 C 376.800 295.036,376.980 294.800,377.200 294.800 C 377.420 294.800,377.600 294.440,377.600 294.000 C 377.600 293.560,377.780 293.200,378.000 293.200 C 378.220 293.200,378.400 292.855,378.400 292.433 C 378.400 292.012,378.537 291.607,378.704 291.533 C 378.871 291.460,379.789 289.780,380.745 287.800 C 381.700 285.820,382.643 283.887,382.841 283.505 C 383.038 283.123,383.200 282.538,383.200 282.205 C 383.200 281.872,383.380 281.600,383.600 281.600 C 383.820 281.600,384.000 281.240,384.000 280.800 C 384.000 280.360,384.180 280.000,384.400 280.000 C 384.620 280.000,384.800 279.651,384.800 279.224 C 384.800 278.797,384.980 278.336,385.200 278.200 C 385.420 278.064,385.600 277.513,385.600 276.976 C 385.600 276.439,385.780 276.000,386.000 276.000 C 386.220 276.000,386.400 275.640,386.400 275.200 C 386.400 274.760,386.580 274.400,386.800 274.400 C 387.020 274.400,387.200 274.038,387.200 273.595 C 387.200 273.152,387.359 272.477,387.553 272.095 C 387.748 271.713,388.129 270.860,388.400 270.200 C 388.671 269.540,389.052 268.687,389.247 268.305 C 389.441 267.923,389.600 267.259,389.600 266.829 C 389.600 266.399,389.780 265.936,390.000 265.800 C 390.220 265.664,390.400 265.124,390.400 264.600 C 390.400 264.076,390.567 263.544,390.772 263.417 C 390.977 263.291,391.267 262.200,391.418 260.994 C 391.569 259.787,391.851 258.800,392.046 258.800 C 392.241 258.800,392.400 258.170,392.400 257.400 C 392.400 256.630,392.580 256.000,392.800 256.000 C 393.020 256.000,393.200 255.471,393.200 254.824 C 393.200 254.177,393.380 253.536,393.600 253.400 C 393.820 253.264,394.000 252.533,394.000 251.776 C 394.000 251.019,394.180 250.400,394.400 250.400 C 394.620 250.400,394.800 249.680,394.800 248.800 C 394.800 247.920,394.980 247.200,395.200 247.200 C 395.420 247.200,395.600 246.491,395.600 245.624 C 395.600 244.757,395.780 243.936,396.000 243.800 C 396.220 243.664,396.400 242.753,396.400 241.776 C 396.400 240.799,396.580 240.000,396.800 240.000 C 397.020 240.000,397.200 239.111,397.200 238.024 C 397.200 236.937,397.380 235.936,397.600 235.800 C 397.820 235.664,398.000 234.584,398.000 233.400 C 398.000 232.216,398.180 231.136,398.400 231.000 C 398.620 230.864,398.800 229.518,398.800 228.010 C 398.800 226.171,398.965 225.212,399.300 225.100 C 399.693 224.969,399.800 219.591,399.800 200.000 C 399.800 180.409,399.693 175.031,399.300 174.900 C 398.965 174.788,398.800 173.829,398.800 171.990 C 398.800 170.482,398.620 169.136,398.400 169.000 C 398.180 168.864,398.000 167.784,398.000 166.600 C 398.000 165.416,397.820 164.336,397.600 164.200 C 397.380 164.064,397.200 163.063,397.200 161.976 C 397.200 160.889,397.020 160.000,396.800 160.000 C 396.580 160.000,396.400 159.201,396.400 158.224 C 396.400 157.247,396.220 156.336,396.000 156.200 C 395.780 156.064,395.600 155.243,395.600 154.376 C 395.600 153.509,395.420 152.800,395.200 152.800 C 394.980 152.800,394.800 152.080,394.800 151.200 C 394.800 150.320,394.620 149.600,394.400 149.600 C 394.180 149.600,394.000 148.981,394.000 148.224 C 394.000 147.467,393.820 146.736,393.600 146.600 C 393.380 146.464,393.200 145.823,393.200 145.176 C 393.200 144.529,393.020 144.000,392.800 144.000 C 392.580 144.000,392.400 143.370,392.400 142.600 C 392.400 141.830,392.241 141.200,392.046 141.200 C 391.851 141.200,391.569 140.213,391.418 139.006 C 391.267 137.800,390.977 136.709,390.772 136.583 C 390.567 136.456,390.400 135.949,390.400 135.456 C 390.400 134.963,390.257 134.389,390.082 134.180 C 389.907 133.971,389.535 133.080,389.255 132.200 C 388.724 130.526,388.150 129.078,387.553 127.905 C 387.359 127.523,387.200 126.848,387.200 126.405 C 387.200 125.962,387.020 125.600,386.800 125.600 C 386.580 125.600,386.400 125.240,386.400 124.800 C 386.400 124.360,386.220 124.000,386.000 124.000 C 385.780 124.000,385.600 123.561,385.600 123.024 C 385.600 122.487,385.420 121.936,385.200 121.800 C 384.980 121.664,384.800 121.203,384.800 120.776 C 384.800 120.349,384.620 120.000,384.400 120.000 C 384.180 120.000,384.000 119.640,384.000 119.200 C 384.000 118.760,383.820 118.400,383.600 118.400 C 383.380 118.400,383.200 118.040,383.200 117.600 C 383.200 117.160,383.020 116.800,382.800 116.800 C 382.580 116.800,382.400 116.350,382.400 115.800 C 382.400 115.250,382.220 114.800,382.000 114.800 C 381.780 114.800,381.600 114.555,381.600 114.256 C 381.600 113.599,379.124 108.655,378.700 108.467 C 378.535 108.393,378.400 107.988,378.400 107.567 C 378.400 107.145,378.220 106.800,378.000 106.800 C 377.780 106.800,377.600 106.440,377.600 106.000 C 377.600 105.560,377.420 105.200,377.200 105.200 C 376.980 105.200,376.800 104.906,376.800 104.547 C 376.800 104.188,376.469 103.603,376.064 103.247 C 375.659 102.891,375.197 102.071,375.037 101.424 C 374.878 100.778,374.399 99.760,373.973 99.163 C 373.548 98.565,373.200 97.879,373.200 97.638 C 373.200 97.397,373.020 97.200,372.800 97.200 C 372.580 97.200,372.400 97.007,372.400 96.772 C 372.400 96.537,371.860 95.559,371.200 94.600 C 370.540 93.641,370.000 92.703,370.000 92.516 C 370.000 92.329,369.640 91.917,369.200 91.600 C 368.760 91.283,368.400 90.743,368.400 90.400 C 368.400 90.057,368.040 89.517,367.600 89.200 C 367.160 88.883,366.800 88.343,366.800 88.000 C 366.800 87.657,366.440 87.117,366.000 86.800 C 365.560 86.483,365.200 85.943,365.200 85.600 C 365.200 85.257,364.840 84.717,364.400 84.400 C 363.960 84.083,363.600 83.620,363.600 83.371 C 363.600 83.122,363.060 82.354,362.400 81.663 C 361.740 80.972,361.200 80.208,361.200 79.964 C 361.200 79.720,360.660 79.017,360.000 78.400 C 359.340 77.783,358.800 77.126,358.800 76.939 C 358.800 76.753,358.080 75.812,357.200 74.849 C 356.320 73.887,355.600 72.946,355.600 72.760 C 355.600 72.574,354.833 71.651,353.895 70.711 C 352.957 69.770,351.745 68.370,351.202 67.600 C 350.150 66.108,342.800 58.679,342.800 59.108 C 342.800 59.248,342.485 58.948,342.100 58.441 C 340.833 56.774,333.829 49.807,332.405 48.799 C 331.638 48.255,330.135 46.953,329.065 45.905 C 327.995 44.857,326.900 44.000,326.632 44.000 C 326.364 44.000,325.764 43.595,325.300 43.100 C 324.221 41.950,323.304 41.200,322.977 41.200 C 322.836 41.200,322.217 40.660,321.600 40.000 C 320.983 39.340,320.280 38.800,320.036 38.800 C 319.792 38.800,319.028 38.260,318.337 37.600 C 317.646 36.940,316.878 36.400,316.629 36.400 C 316.380 36.400,315.917 36.040,315.600 35.600 C 315.283 35.160,314.743 34.800,314.400 34.800 C 314.057 34.800,313.517 34.440,313.200 34.000 C 312.883 33.560,312.343 33.200,312.000 33.200 C 311.657 33.200,311.117 32.840,310.800 32.400 C 310.483 31.960,309.943 31.600,309.600 31.600 C 309.257 31.600,308.717 31.240,308.400 30.800 C 308.083 30.360,307.671 30.000,307.484 30.000 C 307.297 30.000,306.359 29.460,305.400 28.800 C 304.441 28.140,303.463 27.600,303.228 27.600 C 302.993 27.600,302.800 27.390,302.800 27.133 C 302.800 26.877,302.695 26.771,302.567 26.899 C 302.440 27.027,301.688 26.693,300.897 26.156 C 300.106 25.619,299.001 25.065,298.443 24.925 C 297.884 24.785,297.072 24.339,296.638 23.935 C 296.204 23.531,295.613 23.200,295.325 23.200 C 295.036 23.200,294.800 23.020,294.800 22.800 C 294.800 22.580,294.440 22.400,294.000 22.400 C 293.560 22.400,293.200 22.220,293.200 22.000 C 293.200 21.780,292.840 21.600,292.400 21.600 C 291.960 21.600,291.599 21.465,291.599 21.300 C 291.598 21.135,290.608 20.550,289.400 20.000 C 288.192 19.450,287.202 18.865,287.201 18.700 C 287.201 18.535,286.928 18.400,286.595 18.400 C 286.007 18.400,285.582 18.233,283.705 17.262 C 283.213 17.008,282.538 16.800,282.205 16.800 C 281.872 16.800,281.600 16.620,281.600 16.400 C 281.600 16.180,281.240 16.000,280.800 16.000 C 280.360 16.000,280.000 15.820,280.000 15.600 C 280.000 15.380,279.640 15.200,279.200 15.200 C 278.760 15.200,278.400 15.020,278.400 14.800 C 278.400 14.580,277.860 14.400,277.200 14.400 C 276.540 14.400,276.000 14.220,276.000 14.000 C 276.000 13.780,275.640 13.600,275.200 13.600 C 274.760 13.600,274.400 13.420,274.400 13.200 C 274.400 12.980,274.038 12.800,273.595 12.800 C 273.152 12.800,272.477 12.641,272.095 12.447 C 271.713 12.252,270.860 11.871,270.200 11.600 C 269.540 11.329,268.687 10.948,268.305 10.753 C 267.923 10.559,267.336 10.400,267.000 10.400 C 266.664 10.400,266.077 10.237,265.695 10.037 C 264.553 9.440,260.778 8.400,259.754 8.400 C 259.229 8.400,258.800 8.220,258.800 8.000 C 258.800 7.780,258.170 7.600,257.400 7.600 C 256.630 7.600,256.000 7.420,256.000 7.200 C 256.000 6.980,255.471 6.800,254.824 6.800 C 254.177 6.800,253.536 6.620,253.400 6.400 C 253.264 6.180,252.533 6.000,251.776 6.000 C 251.019 6.000,250.400 5.820,250.400 5.600 C 250.400 5.380,249.680 5.200,248.800 5.200 C 247.920 5.200,247.200 5.020,247.200 4.800 C 247.200 4.580,246.491 4.400,245.624 4.400 C 244.757 4.400,243.936 4.220,243.800 4.000 C 243.664 3.780,242.753 3.600,241.776 3.600 C 240.799 3.600,240.000 3.420,240.000 3.200 C 240.000 2.980,239.100 2.800,238.000 2.800 C 236.900 2.800,236.000 2.620,236.000 2.400 C 236.000 2.178,234.941 2.000,233.624 2.000 C 232.317 2.000,231.136 1.820,231.000 1.600 C 230.864 1.380,229.518 1.200,228.010 1.200 C 226.193 1.200,225.211 1.034,225.103 0.708 C 224.940 0.221,187.893 -0.118,177.900 0.275 M295.113 128.700 C 303.967 137.445,311.208 144.751,311.205 144.936 C 311.197 145.494,169.313 287.200,168.764 287.200 C 168.484 287.200,161.313 280.307,152.828 271.883 C 132.133 251.336,98.869 218.357,93.300 212.864 C 90.825 210.423,88.800 208.266,88.800 208.071 C 88.800 207.826,118.977 177.814,121.390 175.660 C 121.602 175.470,125.372 179.094,141.155 194.662 C 162.177 215.397,168.548 221.600,168.821 221.600 C 168.960 221.600,193.558 197.120,223.483 167.200 C 253.407 137.280,278.144 112.800,278.454 112.800 C 278.763 112.800,286.260 119.955,295.113 128.700 " stroke="none" fill="#3cb44c" fill-rule="evenodd"></path><path id="path2" d="M283.600 118.200 C 286.343 120.950,288.678 123.200,288.788 123.200 C 288.898 123.200,286.743 120.950,284.000 118.200 C 281.257 115.450,278.922 113.200,278.812 113.200 C 278.702 113.200,280.857 115.450,283.600 118.200 M272.400 118.600 C 271.428 119.590,270.723 120.400,270.833 120.400 C 270.943 120.400,271.828 119.590,272.800 118.600 C 273.772 117.610,274.477 116.800,274.367 116.800 C 274.257 116.800,273.372 117.610,272.400 118.600 M268.400 122.600 C 267.428 123.590,266.723 124.400,266.833 124.400 C 266.943 124.400,267.828 123.590,268.800 122.600 C 269.772 121.610,270.477 120.800,270.367 120.800 C 270.257 120.800,269.372 121.610,268.400 122.600 M294.000 128.104 C 294.000 128.161,297.555 131.716,301.900 136.004 L 309.800 143.800 302.004 135.900 C 294.760 128.560,294.000 127.819,294.000 128.104 M253.600 137.400 C 252.628 138.390,251.923 139.200,252.033 139.200 C 252.143 139.200,253.028 138.390,254.000 137.400 C 254.972 136.410,255.677 135.600,255.567 135.600 C 255.457 135.600,254.572 136.410,253.600 137.400 M249.600 141.400 C 248.628 142.390,247.923 143.200,248.033 143.200 C 248.143 143.200,249.028 142.390,250.000 141.400 C 250.972 140.410,251.677 139.600,251.567 139.600 C 251.457 139.600,250.572 140.410,249.600 141.400 M239.600 216.300 L 169.000 287.000 239.700 216.400 C 278.585 177.571,310.400 145.756,310.400 145.700 C 310.400 145.421,305.238 150.568,239.600 216.300 M241.200 149.800 C 240.228 150.790,239.523 151.600,239.633 151.600 C 239.743 151.600,240.628 150.790,241.600 149.800 C 242.572 148.810,243.277 148.000,243.167 148.000 C 243.057 148.000,242.172 148.810,241.200 149.800 M237.200 153.800 C 236.228 154.790,235.523 155.600,235.633 155.600 C 235.743 155.600,236.628 154.790,237.600 153.800 C 238.572 152.810,239.277 152.000,239.167 152.000 C 239.057 152.000,238.172 152.810,237.200 153.800 M222.400 168.600 C 221.428 169.590,220.723 170.400,220.833 170.400 C 220.943 170.400,221.828 169.590,222.800 168.600 C 223.772 167.610,224.477 166.800,224.367 166.800 C 224.257 166.800,223.372 167.610,222.400 168.600 M218.400 172.600 C 217.428 173.590,216.723 174.400,216.833 174.400 C 216.943 174.400,217.828 173.590,218.800 172.600 C 219.772 171.610,220.477 170.800,220.367 170.800 C 220.257 170.800,219.372 171.610,218.400 172.600 M117.791 179.700 L 114.600 183.000 117.900 179.809 C 119.715 178.055,121.200 176.570,121.200 176.509 C 121.200 176.218,120.754 176.635,117.791 179.700 M123.400 178.000 C 124.259 178.880,125.052 179.600,125.162 179.600 C 125.272 179.600,124.659 178.880,123.800 178.000 C 122.941 177.120,122.148 176.400,122.038 176.400 C 121.928 176.400,122.541 177.120,123.400 178.000 M203.600 187.400 C 202.628 188.390,201.923 189.200,202.033 189.200 C 202.143 189.200,203.028 188.390,204.000 187.400 C 204.972 186.410,205.677 185.600,205.567 185.600 C 205.457 185.600,204.572 186.410,203.600 187.400 M199.600 191.400 C 198.628 192.390,197.923 193.200,198.033 193.200 C 198.143 193.200,199.028 192.390,200.000 191.400 C 200.972 190.410,201.677 189.600,201.567 189.600 C 201.457 189.600,200.572 190.410,199.600 191.400 M98.194 198.900 L 93.000 204.200 98.300 199.006 C 103.223 194.181,103.781 193.600,103.494 193.600 C 103.436 193.600,101.051 195.985,98.194 198.900 M143.600 197.704 C 143.600 197.761,147.155 201.316,151.500 205.604 L 159.400 213.400 151.604 205.500 C 144.360 198.160,143.600 197.419,143.600 197.704 M191.200 199.800 C 190.228 200.790,189.523 201.600,189.633 201.600 C 189.743 201.600,190.628 200.790,191.600 199.800 C 192.572 198.810,193.277 198.000,193.167 198.000 C 193.057 198.000,192.172 198.810,191.200 199.800 M187.200 203.800 C 186.228 204.790,185.523 205.600,185.633 205.600 C 185.743 205.600,186.628 204.790,187.600 203.800 C 188.572 202.810,189.277 202.000,189.167 202.000 C 189.057 202.000,188.172 202.810,187.200 203.800 M182.985 208.100 L 181.000 210.200 183.100 208.215 C 184.255 207.123,185.200 206.178,185.200 206.115 C 185.200 205.817,184.829 206.149,182.985 208.100 M89.200 207.835 C 89.200 208.038,96.445 215.403,105.300 224.202 L 121.400 240.200 105.400 224.016 C 96.600 215.114,89.355 207.749,89.300 207.649 C 89.245 207.549,89.200 207.633,89.200 207.835 M172.400 218.600 C 171.428 219.590,170.723 220.400,170.833 220.400 C 170.943 220.400,171.828 219.590,172.800 218.600 C 173.772 217.610,174.477 216.800,174.367 216.800 C 174.257 216.800,173.372 217.610,172.400 218.600 M167.900 221.604 L 168.800 222.578 169.700 221.604 L 170.600 220.630 169.700 221.377 C 168.821 222.106,168.779 222.106,167.900 221.377 L 167.000 220.630 167.900 221.604 M161.200 279.800 C 165.045 283.650,168.281 286.800,168.391 286.800 C 168.501 286.800,165.445 283.650,161.600 279.800 C 157.755 275.950,154.519 272.800,154.409 272.800 C 154.299 272.800,157.355 275.950,161.200 279.800 " stroke="none" fill="#79c48a" fill-rule="evenodd"></path><path id="path3" d="M278.400 113.076 C 278.730 113.193,282.195 116.462,286.100 120.340 C 290.005 124.218,293.200 127.246,293.200 127.068 C 293.200 126.464,279.004 112.817,278.400 112.840 C 277.867 112.861,277.867 112.887,278.400 113.076 M270.213 120.387 C 268.028 122.580,266.322 124.425,266.420 124.487 C 266.519 124.549,268.415 122.755,270.633 120.500 C 272.852 118.245,274.559 116.400,274.426 116.400 C 274.293 116.400,272.398 118.194,270.213 120.387 M260.801 129.798 C 260.286 130.348,259.939 130.848,260.032 130.911 C 260.124 130.974,260.684 130.524,261.274 129.912 C 261.865 129.301,262.212 128.800,262.044 128.800 C 261.877 128.800,261.317 129.249,260.801 129.798 M301.800 135.600 C 304.212 138.020,306.276 140.000,306.386 140.000 C 306.496 140.000,304.612 138.020,302.200 135.600 C 299.788 133.180,297.724 131.200,297.614 131.200 C 297.504 131.200,299.388 133.180,301.800 135.600 M253.792 136.887 C 251.597 139.135,249.929 140.890,250.086 140.787 C 250.766 140.341,258.283 132.800,258.046 132.800 C 257.903 132.800,255.988 134.639,253.792 136.887 M310.334 144.082 C 310.628 144.458,310.753 144.953,310.611 145.182 C 310.469 145.412,310.543 145.600,310.776 145.600 C 311.445 145.600,311.270 144.553,310.500 143.949 C 309.870 143.455,309.853 143.468,310.334 144.082 M236.692 153.907 C 234.552 156.056,232.800 157.925,232.800 158.061 C 232.800 158.197,234.555 156.522,236.700 154.340 C 241.265 149.695,240.980 150.000,240.759 150.000 C 240.663 150.000,238.833 151.758,236.692 153.907 M302.991 153.300 L 299.800 156.600 303.100 153.409 C 304.915 151.655,306.400 150.170,306.400 150.109 C 306.400 149.818,305.954 150.235,302.991 153.300 M229.601 160.998 C 229.086 161.548,228.739 162.048,228.832 162.111 C 228.924 162.174,229.484 161.724,230.074 161.112 C 230.665 160.501,231.012 160.000,230.844 160.000 C 230.677 160.000,230.117 160.449,229.601 160.998 M220.213 170.387 C 218.028 172.580,216.322 174.425,216.420 174.487 C 216.519 174.549,218.415 172.755,220.633 170.500 C 222.852 168.245,224.559 166.400,224.426 166.400 C 224.293 166.400,222.398 168.194,220.213 170.387 M286.591 169.700 L 283.400 173.000 286.700 169.809 C 289.765 166.846,290.182 166.400,289.891 166.400 C 289.830 166.400,288.345 167.885,286.591 169.700 M117.357 179.600 C 115.144 181.800,113.443 183.600,113.575 183.600 C 113.708 183.600,115.429 181.980,117.400 180.000 C 119.371 178.020,121.212 176.400,121.492 176.400 C 121.771 176.400,122.000 176.220,122.000 176.000 C 122.000 175.148,121.243 175.735,117.357 179.600 M128.381 182.490 C 131.340 185.505,133.831 187.902,133.917 187.816 C 134.077 187.656,130.117 183.670,125.560 179.403 C 124.152 178.085,125.421 179.474,128.381 182.490 M210.801 179.798 C 210.286 180.348,209.939 180.848,210.032 180.911 C 210.124 180.974,210.684 180.524,211.274 179.912 C 211.865 179.301,212.212 178.800,212.044 178.800 C 211.877 178.800,211.317 179.249,210.801 179.798 M203.792 186.887 C 201.597 189.135,199.929 190.890,200.086 190.787 C 200.766 190.341,208.283 182.800,208.046 182.800 C 207.903 182.800,205.988 184.639,203.792 186.887 M269.391 186.900 L 266.200 190.200 269.500 187.009 C 272.565 184.046,272.982 183.600,272.691 183.600 C 272.630 183.600,271.145 185.085,269.391 186.900 M140.000 193.767 C 140.000 194.188,141.205 195.328,141.421 195.112 C 141.522 195.011,141.244 194.602,140.802 194.202 C 140.361 193.803,140.000 193.607,140.000 193.767 M95.995 200.700 L 89.800 207.000 96.100 200.805 C 99.565 197.398,102.400 194.563,102.400 194.505 C 102.400 194.219,101.751 194.847,95.995 200.700 M153.742 207.550 C 165.399 219.141,168.362 221.980,168.814 221.994 C 168.932 221.997,170.303 220.740,171.861 219.200 C 173.420 217.660,174.588 216.400,174.457 216.400 C 174.327 216.400,173.002 217.608,171.514 219.085 L 168.808 221.770 167.155 220.185 C 166.246 219.313,160.292 213.470,153.922 207.200 C 147.553 200.930,142.194 195.746,142.013 195.681 C 141.832 195.615,147.110 200.956,153.742 207.550 M186.592 204.087 C 181.958 208.832,181.830 209.102,186.280 204.748 C 189.669 201.433,191.019 200.000,190.754 200.000 C 190.661 200.000,188.788 201.839,186.592 204.087 M252.991 203.300 L 249.800 206.600 253.100 203.409 C 256.165 200.446,256.582 200.000,256.291 200.000 C 256.230 200.000,254.745 201.485,252.991 203.300 M88.962 207.754 C 88.774 208.244,125.772 245.556,126.818 245.930 C 127.018 246.002,118.631 237.549,108.180 227.147 C 97.133 216.151,89.262 208.016,89.377 207.716 C 89.486 207.432,89.485 207.200,89.375 207.200 C 89.265 207.200,89.079 207.449,88.962 207.754 M179.601 210.998 C 179.086 211.548,178.739 212.048,178.832 212.111 C 178.924 212.174,179.484 211.724,180.074 211.112 C 180.665 210.501,181.012 210.000,180.844 210.000 C 180.677 210.000,180.117 210.449,179.601 210.998 M236.591 219.700 L 233.400 223.000 236.700 219.809 C 239.765 216.846,240.182 216.400,239.891 216.400 C 239.830 216.400,238.345 217.885,236.591 219.700 M219.391 236.900 L 216.200 240.200 219.500 237.009 C 222.565 234.046,222.982 233.600,222.691 233.600 C 222.630 233.600,221.145 235.085,219.391 236.900 M131.600 250.883 C 134.130 253.341,140.790 259.854,146.400 265.357 C 153.215 272.043,151.822 270.563,142.200 260.897 C 134.280 252.941,127.620 246.428,127.400 246.423 C 127.180 246.419,129.070 248.426,131.600 250.883 M202.991 253.300 L 199.800 256.600 203.100 253.409 C 206.165 250.446,206.582 250.000,206.291 250.000 C 206.230 250.000,204.745 251.485,202.991 253.300 M186.591 269.700 L 183.400 273.000 186.700 269.809 C 188.515 268.055,190.000 266.570,190.000 266.509 C 190.000 266.218,189.554 266.635,186.591 269.700 M163.993 282.900 C 168.801 287.831,168.832 287.841,171.217 285.300 L 173.000 283.400 171.185 285.100 C 168.760 287.371,168.821 287.392,164.007 282.700 L 159.800 278.600 163.993 282.900 " stroke="none" fill="#50bc60" fill-rule="evenodd"></path><path id="path4" d="M223.605 167.796 L 168.813 222.583 166.907 220.730 C 165.858 219.710,163.560 217.489,161.800 215.793 C 160.040 214.097,151.657 205.800,143.171 197.355 C 134.684 188.910,127.579 182.000,127.381 182.000 C 127.184 182.000,130.077 184.980,133.811 188.622 C 137.545 192.265,146.825 201.445,154.433 209.022 C 162.042 216.600,168.471 222.800,168.722 222.800 C 168.972 222.800,193.648 198.325,223.558 168.410 C 253.467 138.496,278.103 113.971,278.305 113.910 C 278.506 113.850,284.955 119.949,292.635 127.465 C 300.316 134.980,306.703 141.190,306.828 141.265 C 307.068 141.407,292.186 126.587,283.499 118.032 L 278.398 113.009 223.605 167.796 M310.000 144.877 C 310.000 145.165,278.231 177.169,239.403 215.997 L 168.806 286.593 163.903 281.799 L 159.000 277.004 163.901 282.001 L 168.802 286.998 239.848 215.952 C 282.265 173.535,310.714 144.794,310.447 144.629 C 310.201 144.477,310.000 144.589,310.000 144.877 M107.522 190.100 C 99.942 197.635,97.174 200.464,101.370 196.387 C 105.567 192.310,111.751 186.280,115.113 182.987 C 122.421 175.831,121.320 176.290,124.197 179.197 C 125.505 180.519,126.727 181.600,126.913 181.600 C 127.289 181.600,121.945 176.427,121.552 176.411 C 121.415 176.405,115.102 182.565,107.522 190.100 M90.073 206.887 C 89.813 207.147,89.600 207.550,89.600 207.781 C 89.600 208.013,99.230 217.832,111.000 229.600 C 122.770 241.368,132.400 250.880,132.400 250.737 C 132.400 250.594,122.860 240.975,111.200 229.362 C 90.887 209.132,89.365 207.493,90.500 207.088 C 90.775 206.990,90.898 206.798,90.773 206.661 C 90.649 206.525,90.334 206.626,90.073 206.887 M132.800 251.132 C 132.800 251.509,135.644 254.089,135.842 253.892 C 135.929 253.804,135.281 253.086,134.401 252.295 C 133.520 251.505,132.800 250.982,132.800 251.132 M146.000 264.221 C 146.000 264.343,147.935 266.337,150.300 268.652 C 158.119 276.306,159.092 277.085,152.605 270.496 C 146.229 264.020,146.000 263.802,146.000 264.221 " stroke="none" fill="#8ccca4" fill-rule="evenodd"></path></g></svg>