<svg xmlns="http://www.w3.org/2000/svg" width="13" height="15" viewBox="0 0 13 15"><defs><style>.a{fill:#04486b;}</style></defs><g transform="translate(0.003 0.001)"><path class="a" d="M222.773,154.7a.364.364,0,0,0-.375.351v6.639a.376.376,0,0,0,.75,0v-6.639A.364.364,0,0,0,222.773,154.7Zm0,0" transform="translate(-214.065 -149.27)"/><path class="a" d="M104.773,154.7a.364.364,0,0,0-.375.351v6.639a.376.376,0,0,0,.75,0v-6.639A.364.364,0,0,0,104.773,154.7Zm0,0" transform="translate(-100.488 -149.27)"/><path class="a" d="M1.061,4.464v8.655a1.872,1.872,0,0,0,.55,1.337A1.906,1.906,0,0,0,2.951,15h7.092a1.906,1.906,0,0,0,1.339-.543,1.872,1.872,0,0,0,.55-1.337V4.464a1.347,1.347,0,0,0,1.053-1.471,1.4,1.4,0,0,0-1.42-1.168H9.646V1.386A1.337,1.337,0,0,0,9.213.4,1.525,1.525,0,0,0,8.161,0H4.833A1.525,1.525,0,0,0,3.781.4a1.337,1.337,0,0,0-.433.985v.439H1.429A1.4,1.4,0,0,0,.009,2.994,1.347,1.347,0,0,0,1.061,4.464ZM10.043,14.3H2.951a1.144,1.144,0,0,1-1.139-1.177V4.5h9.371v8.624A1.144,1.144,0,0,1,10.043,14.3ZM4.1,1.386A.655.655,0,0,1,4.311.9.748.748,0,0,1,4.833.7H8.161a.748.748,0,0,1,.522.2.655.655,0,0,1,.213.488v.439H4.1ZM1.429,2.528H11.565a.655.655,0,0,1,.675.632.655.655,0,0,1-.675.632H1.429A.655.655,0,0,1,.754,3.16.655.655,0,0,1,1.429,2.528Zm0,0" transform="translate(0 0)"/><path class="a" d="M163.773,154.7a.364.364,0,0,0-.375.351v6.639a.376.376,0,0,0,.75,0v-6.639A.364.364,0,0,0,163.773,154.7Zm0,0" transform="translate(-157.276 -149.27)"/></g></svg>