<svg xmlns="http://www.w3.org/2000/svg" width="14.548" height="14.548" viewBox="0 0 14.548 14.548"><defs><style>.a{fill:#04486b;stroke:#ededed;stroke-width:0.5px;}</style></defs><g transform="translate(0.25 0.298)"><g transform="translate(0 0)"><path class="a" d="M.015,10.5,0,13.38a.625.625,0,0,0,.178.443A.593.593,0,0,0,.607,14l2.871-.015a.593.593,0,0,0,.429-.177l9.915-9.895a.623.623,0,0,0,0-.871L10.981.177a.626.626,0,0,0-.873,0L8.125,2.171l-7.932,7.9A.657.657,0,0,0,.015,10.5ZM10.552,1.477l2,1.994L11.425,4.593l-2-1.994ZM1.243,10.766l7.311-7.3,2,1.994L3.241,12.745l-2.013.015Z" transform="translate(0 0)"/></g></g></svg>